<?xml version="1.0" encoding="utf-8"?>
<svg version="1.1" id="Layer_1" xmlns="http://www.w3.org/2000/svg" x="0px" y="0px" viewBox="0 0 46 46"
	 style="enable-background:new 0 0 46 46;" xml:space="preserve">
<path style="fill:#FFFFFF" d="M44.8,18.9H23.3v8.8h12.3c-0.5,2.9-2.1,5.3-4.6,6.9c-2,1.4-4.7,2.2-7.7,2.2c-5.9,0-11-4-12.8-9.4
	C10,26,9.8,24.5,9.8,23c0-1.5,0.3-3,0.7-4.3c1.8-5.4,6.8-9.4,12.8-9.4c3.4,0,6.4,1.2,8.7,3.4l6.5-6.5c-4-3.7-9.1-5.9-15.3-5.9
	c-8.9,0-16.6,5.1-20.4,12.6C1.3,15.8,0.5,19.3,0.5,23s0.9,7.2,2.4,10.2c3.8,7.5,11.5,12.6,20.4,12.6c6.2,0,11.3-2,15.1-5.5
	c4.3-4,6.8-9.8,6.8-16.8C45.2,21.9,45,20.3,44.8,18.9z"/>
</svg>
