<svg width="200" height="160" viewBox="0 0 200 160" fill="none" xmlns="http://www.w3.org/2000/svg">
<path fill-rule="evenodd" clip-rule="evenodd" d="M123.764 18.0715C140.851 20.7662 159.721 14.2513 173.182 25.1207C187.614 36.7745 200.466 57.2785 193.729 74.5671C187.067 91.6631 158.371 83.2445 145.456 96.2717C132.415 109.426 140.024 136.273 123.764 145.139C101.333 157.371 63.8409 169.819 50.1084 148.265C35.3841 125.155 77.6903 101.952 78.8009 74.5671C79.8081 49.7334 40.3793 26.0596 55.8531 6.61703C70.7194 -12.0623 100.19 14.3537 123.764 18.0715Z" fill="#FAFAFA"/>
<path d="M72.8712 84.3014C72.8712 93.2133 75.5139 101.925 80.4651 109.335C85.4163 116.745 92.4536 122.52 100.687 125.931C108.921 129.341 117.981 130.234 126.721 128.495C135.462 126.756 143.491 122.465 149.792 116.163C156.094 109.862 160.386 101.833 162.124 93.0921C163.863 84.3514 162.971 75.2915 159.56 67.0579C156.15 58.8244 150.374 51.7871 142.964 46.8359C135.554 41.8847 126.843 39.242 117.931 39.242L117.931 84.3014L72.8712 84.3014Z" fill="white"/>
<path fill-rule="evenodd" clip-rule="evenodd" d="M152.765 55.7162C152.71 55.6486 152.654 55.5812 152.598 55.5139C151.4 54.519 150.147 53.5838 148.844 52.713C141.434 47.7618 132.722 45.1191 123.811 45.1191L123.811 90.1786L78.7512 90.1785C78.7512 99.0905 81.3938 107.802 86.345 115.212C87.2157 116.515 88.151 117.768 89.1459 118.966C92.6043 121.838 96.4917 124.192 100.69 125.931C107.894 128.915 115.732 129.971 123.434 129.024C124.534 128.889 125.632 128.713 126.724 128.495C134.372 126.974 141.475 123.498 147.353 118.431C148.193 117.707 149.008 116.951 149.795 116.163C156.097 109.862 160.389 101.833 162.127 93.0922C163.866 84.3516 162.974 75.2916 159.563 67.0581C157.858 62.9413 155.561 59.1236 152.765 55.7162Z" fill="#FFD16A"/>
<path fill-rule="evenodd" clip-rule="evenodd" d="M123.811 58.3291C126.758 53.9374 130.192 49.9002 134.037 46.2949C139.292 47.5195 144.312 49.6844 148.844 52.713C150.147 53.5837 151.4 54.519 152.598 55.5139C152.654 55.5812 152.71 55.6486 152.765 55.7162C155.561 59.1236 157.858 62.9413 159.563 67.0581C162.973 75.2916 163.866 84.3516 162.127 93.0923C160.389 101.833 156.097 109.862 149.795 116.163C149.008 116.951 148.193 117.707 147.353 118.431C141.475 123.498 134.372 126.974 126.724 128.495C125.632 128.713 124.534 128.889 123.434 129.024C122.285 129.165 121.134 129.262 119.982 129.314C114.918 119.668 112.053 108.686 112.053 97.0354C112.053 94.7217 112.166 92.4343 112.387 90.1786H123.811L123.811 58.3291Z" fill="#FDC113"/>
<path fill-rule="evenodd" clip-rule="evenodd" d="M116.708 39.2417C116.708 38.5665 117.255 38.019 117.931 38.019C127.084 38.019 136.032 40.7334 143.643 45.819C151.255 50.9045 157.187 58.1328 160.69 66.5897C164.193 75.0467 165.109 84.3525 163.323 93.3303C162.487 97.5335 161.076 101.576 159.148 105.352C158.841 105.953 158.104 106.192 157.503 105.885C156.902 105.578 156.663 104.841 156.97 104.24C158.797 100.664 160.133 96.8344 160.925 92.8533C162.616 84.3498 161.748 75.5357 158.43 67.5255C155.112 59.5154 149.494 52.6691 142.285 47.8522C135.415 43.2621 127.396 40.7114 119.153 40.4815L119.153 84.3011C119.153 84.9764 118.606 85.5238 117.93 85.5238H95.4008C94.7255 85.5238 94.1781 84.9764 94.1781 84.3011C94.1781 83.6259 94.7255 83.0785 95.4008 83.0785H116.708L116.708 39.2417ZM72.0065 83.4366C72.2358 83.2073 72.5468 83.0784 72.8711 83.0784L81.574 83.0785C82.2493 83.0785 82.7967 83.6259 82.7967 84.3011C82.7967 84.9764 82.2493 85.5238 81.574 85.5238L74.1108 85.5238C74.3407 93.7661 76.8914 101.786 81.4816 108.656C86.2984 115.864 93.1448 121.483 101.155 124.801C109.165 128.119 117.979 128.987 126.483 127.296C134.986 125.604 142.797 121.429 148.928 115.298C149.405 114.821 150.179 114.821 150.657 115.298C151.134 115.776 151.134 116.55 150.657 117.028C144.184 123.5 135.938 127.908 126.96 129.694C117.982 131.48 108.676 130.563 100.219 127.06C91.7622 123.557 84.5339 117.625 79.4483 110.014C74.3628 102.403 71.6484 93.4549 71.6484 84.3011C71.6484 83.9769 71.7772 83.6659 72.0065 83.4366Z" fill="#627383"/>
<path d="M108 29C102.222 29 96.5003 30.1381 91.1619 32.3493C85.8236 34.5605 80.9731 37.8015 76.8873 41.8873C72.8015 45.9731 69.5605 50.8236 67.3493 56.1619C65.1381 61.5003 64 67.2218 64 73L108 73V29Z" fill="white"/>
<path fill-rule="evenodd" clip-rule="evenodd" d="M109 32.7334C105.978 33.2922 103.015 34.1675 100.162 35.3493C94.8236 37.5605 89.9731 40.8015 85.8873 44.8873C81.8015 48.9731 78.5605 53.8236 76.3493 59.1619C74.5216 63.5743 73.4271 68.2485 73.1024 73L109 73V32.7334Z" fill="#FFF9E9"/>
<path fill-rule="evenodd" clip-rule="evenodd" d="M90.694 31.2197C96.1807 28.9471 102.061 27.7773 108 27.7773C108.675 27.7773 109.223 28.3248 109.223 29V73C109.223 73.6753 108.675 74.2227 108 74.2227L97 74.2227C96.3247 74.2227 95.7773 73.6753 95.7773 73C95.7773 72.3248 96.3247 71.7773 97 71.7773L106.777 71.7773V30.2402C101.577 30.3889 96.443 31.4853 91.6298 33.4789C91.006 33.7373 90.2907 33.4411 90.0323 32.8172C89.7739 32.1934 90.0702 31.4781 90.694 31.2197ZM72.487 46.9939C73.0426 47.3776 73.1821 48.139 72.7984 48.6947C71.0866 51.174 69.6374 53.833 68.4789 56.6299C66.4852 61.443 65.3889 66.5766 65.2401 71.7773H86C86.6753 71.7773 87.2227 72.3248 87.2227 73C87.2227 73.6753 86.6753 74.2227 86 74.2227H64C63.3247 74.2227 62.7773 73.6753 62.7773 73C62.7773 67.0613 63.947 61.1807 66.2197 55.6941C67.4444 52.7374 68.9764 49.9263 70.7861 47.3053C71.1698 46.7496 71.9313 46.6102 72.487 46.9939Z" fill="#627383"/>
<path d="M99.4447 43.9007C101.1 43.3968 102.305 41.8578 102.305 40.0375C102.305 37.8076 100.497 36 98.2675 36C96.0377 36 94.23 37.8076 94.23 40.0375C94.23 41.8578 95.4347 43.3968 97.0903 43.9007C94.1246 44.3837 91.7616 46.6617 91.1529 49.5834C90.9839 50.3944 91.6716 51.0733 92.5 51.0733H97.698C102.026 51.0733 105.516 46.7181 101.704 44.6683C101.011 44.2954 100.25 44.0318 99.4447 43.9007Z" fill="#FEF2CE"/>
<path d="M102.305 40.0372C102.305 41.8576 101.1 43.3966 99.4448 43.9004C100.046 43.9983 100.622 44.1699 101.164 44.4056C101.129 44.4171 101.095 44.4281 101.06 44.4388C101.16 44.4551 101.26 44.4736 101.359 44.494C103.36 45.4357 104.861 47.2632 105.358 49.4709C105.554 50.3411 104.812 51.0731 103.92 51.0731H93.0475C92.8127 50.788 92.7013 50.4135 92.7922 50.0092C93.4375 47.1416 95.7777 44.9156 98.7054 44.4388C97.0497 43.9349 95.8451 42.3959 95.8451 40.5756C95.8451 38.3457 97.6527 36.5381 99.8826 36.5381C100.032 36.5381 100.179 36.5462 100.324 36.5619C101.51 37.2652 102.305 38.5584 102.305 40.0372Z" fill="#FFD16A"/>
<path fill-rule="evenodd" clip-rule="evenodd" d="M97.4801 43.8215C97.6155 41.1588 98.4298 38.6753 99.7533 36.5406C99.7961 36.5393 99.8391 36.5386 99.8823 36.5386C100.031 36.5386 100.179 36.5467 100.324 36.5624C101.51 37.2657 102.305 38.5589 102.305 40.0377C102.305 41.8581 101.1 43.3971 99.4445 43.9009C100.045 43.9988 100.622 44.1704 101.163 44.4061C101.129 44.4176 101.094 44.4286 101.059 44.4392C101.16 44.4556 101.26 44.474 101.359 44.4945C103.359 45.4362 104.861 47.2637 105.358 49.4714C105.553 50.3415 104.812 51.0735 103.92 51.0735H98.8822C97.9885 49.151 97.4814 47.0124 97.4607 44.7576C97.8606 44.6163 98.2765 44.509 98.7051 44.4392C98.2591 44.3035 97.8459 44.0927 97.4801 43.8215Z" fill="#FDC113"/>
<path d="M84.4447 38.9007C86.1003 38.3968 87.305 36.8578 87.305 35.0375C87.305 32.8076 85.4973 31 83.2675 31C81.0377 31 79.23 32.8076 79.23 35.0375C79.23 36.8578 80.4347 38.3968 82.0903 38.9007C79.1246 39.3837 76.7616 41.6617 76.1529 44.5834C75.9839 45.3944 76.6716 46.0733 77.5 46.0733H82.698C87.0262 46.0733 90.5165 41.7181 86.7044 39.6683C86.011 39.2954 85.2501 39.0318 84.4447 38.9007Z" fill="#FEF2CE"/>
<path d="M87.3051 35.0372C87.3051 36.8576 86.1004 38.3966 84.4448 38.9004C85.0457 38.9983 85.6218 39.1699 86.1637 39.4056C86.1293 39.4171 86.0946 39.4281 86.0598 39.4388C86.1602 39.4551 86.26 39.4736 86.359 39.494C88.3597 40.4357 89.8611 42.2632 90.3579 44.4709C90.5536 45.3411 89.812 46.0731 88.9201 46.0731H78.0475C77.8127 45.788 77.7013 45.4135 77.7922 45.0092C78.4375 42.1416 80.7777 39.9156 83.7054 39.4388C82.0497 38.9349 80.8451 37.3959 80.8451 35.5756C80.8451 33.3457 82.6527 31.5381 84.8826 31.5381C85.0317 31.5381 85.1789 31.5462 85.3239 31.5619C86.5099 32.2652 87.3051 33.5584 87.3051 35.0372Z" fill="#FFD16A"/>
<path fill-rule="evenodd" clip-rule="evenodd" d="M82.4801 38.8215C82.6155 36.1588 83.4298 33.6753 84.7533 31.5406C84.7961 31.5393 84.8391 31.5386 84.8823 31.5386C85.0315 31.5386 85.1787 31.5467 85.3236 31.5624C86.5096 32.2657 87.3048 33.5589 87.3048 35.0377C87.3048 36.8581 86.1001 38.3971 84.4445 38.9009C85.0454 38.9988 85.6216 39.1704 86.1634 39.4061C86.129 39.4176 86.0943 39.4286 86.0595 39.4392C86.16 39.4556 86.2597 39.474 86.3588 39.4945C88.3594 40.4362 89.8609 42.2637 90.3576 44.4714C90.5534 45.3415 89.8117 46.0735 88.9198 46.0735H83.8822C82.9885 44.151 82.4814 42.0124 82.4607 39.7576C82.8606 39.6163 83.2765 39.509 83.7051 39.4392C83.2591 39.3035 82.8459 39.0927 82.4801 38.8215Z" fill="#FDC113"/>
<path d="M87.4447 54.9007C89.1003 54.3968 90.305 52.8578 90.305 51.0375C90.305 48.8076 88.4973 47 86.2675 47C84.0377 47 82.23 48.8076 82.23 51.0375C82.23 52.8578 83.4347 54.3968 85.0903 54.9007C82.1246 55.3837 79.7616 57.6617 79.1529 60.5834C78.9839 61.3944 79.6716 62.0733 80.5 62.0733H85.698C90.0262 62.0733 93.5165 57.7181 89.7044 55.6683C89.011 55.2954 88.2501 55.0318 87.4447 54.9007Z" fill="#FEF2CE"/>
<path d="M90.3052 51.0368C90.3052 52.8571 89.1005 54.3961 87.4449 54.8999C88.0459 54.9978 88.622 55.1694 89.1638 55.4051C89.1294 55.4166 89.0947 55.4277 89.0599 55.4383C89.1604 55.4546 89.2601 55.4731 89.3592 55.4935C91.3598 56.4352 92.8613 58.2627 93.358 60.4704C93.5538 61.3406 92.8121 62.0726 91.9202 62.0726H81.0476C80.8128 61.7875 80.7014 61.413 80.7924 61.0087C81.4376 58.1411 83.7778 55.9151 86.7055 55.4383C85.0499 54.9344 83.8452 53.3954 83.8452 51.5751C83.8452 49.3452 85.6529 47.5376 87.8827 47.5376C88.0319 47.5376 88.1791 47.5457 88.324 47.5615C89.51 48.2648 90.3052 49.5579 90.3052 51.0368Z" fill="#FFD16A"/>
<path fill-rule="evenodd" clip-rule="evenodd" d="M85.4804 54.821C85.6158 52.1583 86.4301 49.6748 87.7536 47.5401C87.7964 47.5388 87.8394 47.5381 87.8826 47.5381C88.0317 47.5381 88.1789 47.5462 88.3239 47.5619C89.5099 48.2652 90.3051 49.5584 90.3051 51.0372C90.3051 52.8576 89.1004 54.3966 87.4448 54.9004C88.0457 54.9983 88.6218 55.1699 89.1637 55.4056C89.1293 55.4171 89.0946 55.4281 89.0598 55.4388C89.1602 55.4551 89.26 55.4736 89.359 55.494C91.3597 56.4357 92.8611 58.2632 93.3579 60.4709C93.5536 61.3411 92.812 62.0731 91.92 62.0731H86.8824C85.9888 60.1505 85.4817 58.0119 85.4609 55.7571C85.8608 55.6158 86.2768 55.5086 86.7053 55.4388C86.2594 55.303 85.8462 55.0922 85.4804 54.821Z" fill="#FDC113"/>
<path d="M76.4447 61.9007C78.1003 61.3968 79.305 59.8578 79.305 58.0375C79.305 55.8076 77.4973 54 75.2675 54C73.0377 54 71.23 55.8076 71.23 58.0375C71.23 59.8578 72.4347 61.3968 74.0903 61.9007C71.1246 62.3837 68.7616 64.6617 68.1529 67.5834C67.9839 68.3944 68.6716 69.0733 69.5 69.0733H74.698C79.0262 69.0733 82.5165 64.7181 78.7044 62.6683C78.011 62.2954 77.2501 62.0318 76.4447 61.9007Z" fill="#FEF2CE"/>
<path d="M79.3052 58.0368C79.3052 59.8571 78.1005 61.3961 76.4449 61.8999C77.0459 61.9978 77.622 62.1694 78.1638 62.4051C78.1294 62.4166 78.0947 62.4277 78.0599 62.4383C78.1604 62.4546 78.2601 62.4731 78.3592 62.4935C80.3598 63.4352 81.8613 65.2627 82.358 67.4704C82.5538 68.3406 81.8121 69.0726 80.9202 69.0726H70.0476C69.8128 68.7875 69.7014 68.413 69.7924 68.0087C70.4376 65.1411 72.7778 62.9151 75.7055 62.4383C74.0499 61.9344 72.8452 60.3954 72.8452 58.5751C72.8452 56.3452 74.6529 54.5376 76.8827 54.5376C77.0319 54.5376 77.1791 54.5457 77.324 54.5615C78.51 55.2648 79.3052 56.5579 79.3052 58.0368Z" fill="#FFD16A"/>
<path fill-rule="evenodd" clip-rule="evenodd" d="M74.4804 61.821C74.6158 59.1583 75.4301 56.6748 76.7536 54.5401C76.7964 54.5388 76.8394 54.5381 76.8826 54.5381C77.0317 54.5381 77.1789 54.5462 77.3239 54.5619C78.5099 55.2652 79.3051 56.5584 79.3051 58.0372C79.3051 59.8576 78.1004 61.3966 76.4448 61.9004C77.0457 61.9983 77.6218 62.1699 78.1637 62.4056C78.1293 62.4171 78.0946 62.4281 78.0598 62.4388C78.1602 62.4551 78.26 62.4736 78.359 62.494C80.3597 63.4357 81.8611 65.2632 82.3579 67.4709C82.5536 68.3411 81.812 69.0731 80.92 69.0731H75.8824C74.9888 67.1505 74.4817 65.0119 74.4609 62.7571C74.8608 62.6158 75.2768 62.5086 75.7053 62.4388C75.2594 62.303 74.8462 62.0922 74.4804 61.821Z" fill="#FDC113"/>
<path d="M98.7687 61.9563C100.424 61.4525 101.629 59.9135 101.629 58.0932C101.629 55.8633 99.8213 54.0557 97.5915 54.0557C95.3616 54.0557 93.554 55.8633 93.554 58.0932C93.554 59.9135 94.7586 61.4525 96.4142 61.9563C93.4485 62.4394 91.0856 64.7174 90.4768 67.639C90.3079 68.45 90.9955 69.129 91.824 69.129H97.022C101.35 69.129 104.84 64.7738 101.028 62.7239C100.335 62.3511 99.574 62.0875 98.7687 61.9563Z" fill="#FEF2CE"/>
<path d="M101.629 58.0929C101.629 59.9133 100.424 61.4522 98.7686 61.9561C99.3696 62.054 99.9457 62.2256 100.488 62.4612C100.453 62.4728 100.418 62.4838 100.384 62.4944C100.484 62.5108 100.584 62.5292 100.683 62.5497C102.684 63.4914 104.185 65.3188 104.682 67.5265C104.877 68.3967 104.136 69.1287 103.244 69.1287H92.3713C92.1365 68.8436 92.0251 68.4692 92.1161 68.0649C92.7613 65.1973 95.1015 62.9712 98.0292 62.4944C96.3736 61.9906 95.1689 60.4516 95.1689 58.6312C95.1689 56.4014 96.9766 54.5938 99.2064 54.5938C99.3556 54.5938 99.5028 54.6018 99.6477 54.6176C100.834 55.3209 101.629 56.614 101.629 58.0929Z" fill="#FFD16A"/>
<path fill-rule="evenodd" clip-rule="evenodd" d="M96.804 61.8772C96.9395 59.2145 97.7538 56.731 99.0773 54.5963C99.1201 54.5949 99.1631 54.5942 99.2062 54.5942C99.3554 54.5942 99.5026 54.6023 99.6476 54.6181C100.834 55.3214 101.629 56.6145 101.629 58.0934C101.629 59.9138 100.424 61.4527 98.7684 61.9566C99.3694 62.0545 99.9455 62.226 100.487 62.4617C100.453 62.4733 100.418 62.4843 100.383 62.4949C100.484 62.5113 100.584 62.5297 100.683 62.5501C102.683 63.4919 104.185 65.3193 104.682 67.527C104.877 68.3972 104.136 69.1292 103.244 69.1292H98.2061C97.3124 67.2067 96.8053 65.0681 96.7846 62.8133C97.1845 62.672 97.6005 62.5647 98.029 62.4949C97.5831 62.3592 97.1698 62.1484 96.804 61.8772Z" fill="#FDC113"/>
</svg>
