<svg width="160" height="122" viewBox="0 0 160 122" fill="none" xmlns="http://www.w3.org/2000/svg">
<path d="M174.678 66.7971C192.635 35.9339 140.449 -28.4041 111.27 15.3656C82.0912 59.1353 73.1131 40.9842 50.6678 69.6028C28.2224 98.2214 42.1041 177.944 83.7747 136.099C125.445 94.2534 162.895 158.825 180.851 133.013C198.807 107.2 156.722 97.6603 174.678 66.7971Z" fill="#FAFAFA"/>
<circle cx="118.407" cy="85.0914" r="44.6119" fill="white"/>
<path d="M118.407 129.704C143.046 129.704 163.019 109.73 163.019 85.0918C163.019 73.4829 158.585 62.9098 151.318 54.9734C143.382 47.7065 132.809 43.2725 121.2 43.2725C96.5613 43.2725 76.5879 63.2459 76.5879 87.8843C76.5879 99.4932 81.022 110.066 88.2888 118.003C96.2252 125.27 106.798 129.704 118.407 129.704Z" fill="#FFD16A"/>
<path fill-rule="evenodd" clip-rule="evenodd" d="M111.94 129.238C111.096 124.322 110.656 119.267 110.656 114.11C110.656 87.6751 122.207 63.9378 140.536 47.6699C144.488 49.5739 148.117 52.0434 151.317 54.9733C158.584 62.9097 163.018 73.4829 163.018 85.0917C163.018 109.73 143.045 129.704 118.406 129.704C116.21 129.704 114.051 129.545 111.94 129.238Z" fill="#FDC113"/>
<circle cx="118.407" cy="85.092" r="35.2199" fill="white"/>
<circle cx="118.406" cy="85.0916" r="25.8279" fill="#FFD16A"/>
<path fill-rule="evenodd" clip-rule="evenodd" d="M110.762 109.769C111.636 91.6014 117.97 74.8658 128.158 61.167C137.589 65.0146 144.235 74.2766 144.235 85.0911C144.235 99.3555 132.672 110.919 118.407 110.919C115.746 110.919 113.178 110.516 110.762 109.769Z" fill="#FDC113"/>
<circle cx="118.407" cy="85.0912" r="16.436" fill="white"/>
<circle cx="118.407" cy="85.0918" r="7.04398" fill="#FFD16A"/>
<path fill-rule="evenodd" clip-rule="evenodd" d="M113.842 90.4566C115.02 86.1829 116.509 82.0384 118.284 78.0489C118.325 78.0482 118.366 78.0479 118.407 78.0479C122.297 78.0479 125.451 81.2015 125.451 85.0918C125.451 88.9821 122.297 92.1358 118.407 92.1358C116.665 92.1358 115.071 91.5038 113.842 90.4566Z" fill="#FDC113"/>
<path d="M118.406 87.0213L151.306 115.221C152.046 114.414 152.757 113.579 153.437 112.718L119.476 83.6086C119.166 83.3428 118.785 83.2127 118.406 83.2129L118.406 87.0213Z" fill="#ECB100"/>
<path d="M118.406 87.0213L144.17 109.105C144.918 108.304 145.628 107.468 146.298 106.599L119.476 83.6086C119.166 83.3428 118.785 83.2127 118.406 83.2129V87.0213Z" fill="#F4F5F6"/>
<path d="M118.406 87.0213L137.031 102.985C137.79 102.195 138.5 101.357 139.154 100.476L119.476 83.6086C119.166 83.3428 118.785 83.2127 118.406 83.2129V87.0213Z" fill="#ECB100"/>
<path d="M118.406 87.0213L129.882 96.8576C130.667 96.092 131.376 95.2485 131.995 94.3395L119.476 83.6086C119.166 83.3428 118.785 83.2127 118.406 83.2129V87.0213Z" fill="#F4F5F6"/>
<path d="M118.406 87.0213L122.684 90.688C123.561 90.0163 124.276 89.143 124.759 88.1373L119.476 83.6086C119.166 83.3428 118.785 83.2127 118.406 83.2129V87.0213Z" fill="#ECB100"/>
<path d="M118.406 85.5617L142.591 50.3418" stroke="#627383" stroke-width="2.5" stroke-linecap="round" stroke-linejoin="round"/>
<path d="M137.69 48.216L146.428 35.3591L148.88 40.9413L154.972 41.1664L146.234 54.0233L140.141 53.7982L137.69 48.216Z" fill="white"/>
<path d="M137.69 48.216L146.428 35.3591L148.88 40.9413L154.972 41.1664L146.234 54.0233L140.141 53.7982L137.69 48.216Z" stroke="#627383" stroke-width="2.5" stroke-linecap="round" stroke-linejoin="round"/>
<path d="M147.901 38.7139L148.88 40.9422L154.972 41.1674L146.234 54.0243L141.415 53.8462L139.924 50.4509L147.901 38.7139Z" fill="#627383"/>
<path d="M118.408 129.456C93.7687 129.456 73.7949 109.482 73.7949 84.8431M152.351 55.8915C159.004 63.6837 163.02 73.7943 163.02 84.8431C163.02 103.152 151.991 118.885 136.214 125.761M132.56 42.522C128.113 41.0356 123.354 40.2305 118.408 40.2305C99.1746 40.2305 82.7843 52.401 76.5178 69.4607" stroke="#627383" stroke-width="2.5" stroke-linecap="round" stroke-linejoin="round"/>
</svg>
