<svg width="160" height="122" viewBox="0 0 160 122" fill="none" xmlns="http://www.w3.org/2000/svg">
<g clip-path="url(#clip0)">
<path fill-rule="evenodd" clip-rule="evenodd" d="M128.004 16.2681C152.301 12.5331 181.059 -12.9444 195.608 8.48015C210.281 30.0876 177.494 53.4188 170.768 79.241C164.911 101.73 179.684 131.834 161.999 145.192C143.69 159.022 120.949 139.224 99.338 133.194C64.261 123.407 7.84807 138.658 0.651597 100.173C-6.59059 61.4426 48.2654 47.1716 79.4149 26.6491C94.2571 16.8705 110.808 18.9115 128.004 16.2681Z" fill="#FAFAFA"/>
<path d="M127.629 69.4112C131.429 68.2547 134.194 64.7225 134.194 60.5443C134.194 55.4263 130.045 51.2773 124.927 51.2773C119.809 51.2773 115.66 55.4263 115.66 60.5443C115.66 64.7225 118.425 68.2547 122.225 69.4112C116.896 70.2791 112.415 73.6716 110.05 78.321C108.088 82.1788 111.755 85.8741 116.083 85.8741H133.77C138.098 85.8741 141.766 82.1788 139.803 78.321C137.438 73.6716 132.957 70.2791 127.629 69.4112Z" fill="#FAFAFA"/>
<path d="M134.194 60.5451C134.194 64.7232 131.429 68.2555 127.629 69.412C129.008 69.6366 130.33 70.0304 131.574 70.5714C131.495 70.5979 131.416 70.6232 131.336 70.6476C131.566 70.6851 131.795 70.7274 132.022 70.7743C136.614 72.9358 140.061 77.1302 141.201 82.1974C141.65 84.1947 139.948 85.8748 137.901 85.8748H112.946C112.407 85.2205 112.151 84.361 112.36 83.433C113.841 76.8513 119.212 71.742 125.932 70.6476C122.132 69.4911 119.367 65.9588 119.367 61.7806C119.367 56.6626 123.516 52.5137 128.634 52.5137C128.976 52.5137 129.314 52.5322 129.647 52.5684C132.369 54.1827 134.194 57.1507 134.194 60.5451Z" fill="#DCE0E4"/>
<path d="M156.021 76.5099C159.821 75.3534 162.586 71.8211 162.586 67.643C162.586 62.5249 158.437 58.376 153.319 58.376C148.201 58.376 144.052 62.5249 144.052 67.643C144.052 71.8211 146.817 75.3534 150.617 76.5099C145.289 77.3777 140.808 80.7703 138.443 85.4197C136.48 89.2774 140.147 92.9727 144.476 92.9727H162.163C166.491 92.9727 170.158 89.2774 168.196 85.4197C165.831 80.7703 161.35 77.3777 156.021 76.5099Z" fill="#FEF2CE"/>
<path d="M162.586 67.6437C162.586 71.8218 159.821 75.3541 156.021 76.5106C157.401 76.7352 158.723 77.1291 159.967 77.67C159.888 77.6965 159.808 77.7218 159.728 77.7462C159.959 77.7837 160.188 77.826 160.415 77.873C165.007 80.0344 168.453 84.2288 169.593 89.296C170.043 91.2933 168.34 92.9734 166.293 92.9734H141.338C140.799 92.3191 140.544 91.4596 140.752 90.5316C142.233 83.9499 147.605 78.8406 154.324 77.7462C150.524 76.5897 147.759 73.0574 147.759 68.8793C147.759 63.7613 151.908 59.6123 157.026 59.6123C157.369 59.6123 157.706 59.6309 158.039 59.6671C160.761 61.2813 162.586 64.2493 162.586 67.6437Z" fill="#FFD16A"/>
<path fill-rule="evenodd" clip-rule="evenodd" d="M151.511 76.328C151.822 70.2167 153.691 64.5165 156.729 59.617C156.827 59.6139 156.926 59.6123 157.025 59.6123C157.368 59.6123 157.706 59.6309 158.038 59.6671C160.761 61.2813 162.586 64.2493 162.586 67.6437C162.586 71.8218 159.821 75.3541 156.021 76.5106C157.4 76.7352 158.722 77.1291 159.966 77.67C159.887 77.6965 159.807 77.7218 159.727 77.7462C159.958 77.7837 160.187 77.826 160.414 77.873C165.006 80.0344 168.452 84.2288 169.593 89.296C170.042 91.2933 168.34 92.9734 166.292 92.9734H154.73C152.678 88.5608 151.514 83.6523 151.467 78.477C152.385 78.1527 153.34 77.9064 154.323 77.7462C153.3 77.4346 152.351 76.9506 151.511 76.328Z" fill="#FDC113"/>
<path d="M99.236 76.5099C103.036 75.3534 105.801 71.8211 105.801 67.643C105.801 62.5249 101.652 58.376 96.5341 58.376C91.4161 58.376 87.2671 62.5249 87.2671 67.643C87.2671 71.8211 90.0321 75.3534 93.8321 76.5099C88.5036 77.3777 84.0228 80.7703 81.6575 85.4197C79.695 89.2774 83.3622 92.9727 87.6905 92.9727H105.378C109.706 92.9727 113.373 89.2774 111.411 85.4197C109.045 80.7703 104.565 77.3777 99.236 76.5099Z" fill="#FAFAFA"/>
<path d="M105.801 67.6437C105.801 71.8218 103.036 75.3541 99.2362 76.5106C100.616 76.7352 101.938 77.1291 103.182 77.67C103.103 77.6965 103.023 77.7218 102.943 77.7462C103.174 77.7837 103.403 77.826 103.63 77.873C108.222 80.0344 111.668 84.2288 112.808 89.296C113.257 91.2933 111.555 92.9734 109.508 92.9734H84.5529C84.014 92.3191 83.7584 91.4596 83.9671 90.5316C85.4481 83.9499 90.8195 78.8406 97.5391 77.7462C93.7391 76.5897 90.9741 73.0574 90.9741 68.8793C90.9741 63.7613 95.1231 59.6123 100.241 59.6123C100.583 59.6123 100.921 59.6309 101.254 59.6671C103.976 61.2813 105.801 64.2493 105.801 67.6437Z" fill="#DCE0E4"/>
<path d="M152.165 67.739L148.705 70.4418L152.155 70.376C152.703 70.2797 153.122 69.8963 153.319 69.4085C153.515 69.8963 153.935 70.2797 154.482 70.376L157.933 70.4418L154.473 67.739C154.072 67.4578 153.529 67.6283 153.339 68.0943L153.322 68.1374C153.321 68.1397 153.32 68.142 153.319 68.1443C153.318 68.142 153.317 68.1397 153.316 68.1374L153.299 68.0943C153.109 67.6283 152.565 67.4578 152.165 67.739Z" fill="#627383"/>
<path d="M99.236 105.611C103.036 104.455 105.801 100.923 105.801 96.7445C105.801 91.6265 101.652 87.4775 96.5341 87.4775C91.4161 87.4775 87.2671 91.6265 87.2671 96.7445C87.2671 100.923 90.0321 104.455 93.8321 105.611C88.5036 106.479 84.0228 109.872 81.6575 114.521C79.695 118.379 83.3622 122.074 87.6905 122.074H105.378C109.706 122.074 113.373 118.379 111.411 114.521C109.045 109.872 104.565 106.479 99.236 105.611Z" fill="#FAFAFA"/>
<path d="M105.801 96.7443C105.801 100.922 103.036 104.455 99.2362 105.611C100.616 105.836 101.938 106.23 103.182 106.771C103.103 106.797 103.023 106.822 102.943 106.847C103.174 106.884 103.403 106.927 103.63 106.974C108.222 109.135 111.668 113.329 112.808 118.397C113.257 120.394 111.555 122.074 109.508 122.074H84.5529C84.014 121.42 83.7584 120.56 83.9671 119.632C85.4481 113.05 90.8195 107.941 97.5391 106.847C93.7391 105.69 90.9741 102.158 90.9741 97.9799C90.9741 92.8618 95.1231 88.7129 100.241 88.7129C100.583 88.7129 100.921 88.7314 101.254 88.7676C103.976 90.3819 105.801 93.3499 105.801 96.7443Z" fill="#DCE0E4"/>
<path d="M156.021 105.611C159.821 104.455 162.586 100.923 162.586 96.7445C162.586 91.6265 158.437 87.4775 153.319 87.4775C148.201 87.4775 144.052 91.6265 144.052 96.7445C144.052 100.923 146.817 104.455 150.617 105.611C145.289 106.479 140.808 109.872 138.443 114.521C136.48 118.379 140.147 122.074 144.476 122.074H162.163C166.491 122.074 170.158 118.379 168.196 114.521C165.831 109.872 161.35 106.479 156.021 105.611Z" fill="#FAFAFA"/>
<path d="M162.586 96.7443C162.586 100.922 159.821 104.455 156.021 105.611C157.401 105.836 158.723 106.23 159.967 106.771C159.888 106.797 159.808 106.822 159.728 106.847C159.959 106.884 160.188 106.927 160.415 106.974C165.007 109.135 168.453 113.329 169.593 118.397C170.043 120.394 168.34 122.074 166.293 122.074H141.338C140.799 121.42 140.544 120.56 140.752 119.632C142.233 113.05 147.605 107.941 154.324 106.847C150.524 105.69 147.759 102.158 147.759 97.9799C147.759 92.8618 151.908 88.7129 157.026 88.7129C157.369 88.7129 157.706 88.7314 158.039 88.7676C160.761 90.3819 162.586 93.3499 162.586 96.7443Z" fill="#DCE0E4"/>
<path d="M127.629 109.16C131.429 108.004 134.194 104.471 134.194 100.293C134.194 95.1753 130.045 91.0264 124.927 91.0264C119.809 91.0264 115.66 95.1753 115.66 100.293C115.66 104.471 118.425 108.004 122.225 109.16C116.896 110.028 112.415 113.421 110.05 118.07C108.088 121.928 111.755 125.623 116.083 125.623H133.77C138.098 125.623 141.766 121.928 139.803 118.07C137.438 113.421 132.957 110.028 127.629 109.16Z" fill="#FEF2CE"/>
<path d="M134.194 100.294C134.194 104.472 131.429 108.004 127.629 109.161C129.008 109.386 130.33 109.779 131.574 110.32C131.495 110.347 131.416 110.372 131.336 110.397C131.566 110.434 131.795 110.476 132.022 110.523C136.614 112.685 140.061 116.879 141.201 121.946C141.65 123.944 139.948 125.624 137.901 125.624H112.946C112.407 124.97 112.151 124.11 112.36 123.182C113.841 116.6 119.212 111.491 125.932 110.397C122.132 109.24 119.367 105.708 119.367 101.53C119.367 96.4116 123.516 92.2627 128.634 92.2627C128.976 92.2627 129.314 92.2812 129.647 92.3174C132.369 93.9317 134.194 96.8997 134.194 100.294Z" fill="#FFD16A"/>
<path fill-rule="evenodd" clip-rule="evenodd" d="M123.119 108.978C123.43 102.866 125.298 97.166 128.336 92.2664C128.434 92.2633 128.533 92.2617 128.632 92.2617C128.975 92.2617 129.313 92.2803 129.645 92.3165C132.368 93.9307 134.193 96.8988 134.193 100.293C134.193 104.471 131.428 108.004 127.628 109.16C129.007 109.385 130.329 109.778 131.573 110.319C131.494 110.346 131.414 110.371 131.334 110.396C131.565 110.433 131.794 110.475 132.021 110.522C136.613 112.684 140.059 116.878 141.199 121.945C141.649 123.943 139.947 125.623 137.899 125.623H126.337C124.286 121.21 123.122 116.302 123.074 111.126C123.992 110.802 124.947 110.556 125.93 110.396C124.907 110.084 123.958 109.6 123.119 108.978Z" fill="#FDC113"/>
<path d="M123.364 103.433C123.717 103.16 124.453 103.302 124.551 103.412C124.648 103.523 125.11 103.523 125.304 103.412C125.497 103.302 126.137 103.16 126.49 103.433L127.533 104.238C129.58 105.561 130.681 101.645 130.093 102.28C129.732 102.67 129.163 102.721 128.747 102.4L127.705 101.595C126.886 100.963 125.854 100.804 124.927 101.125C124 100.804 122.968 100.963 122.149 101.595L121.107 102.4C120.691 102.721 120.122 102.67 119.761 102.28C119.174 101.645 120.274 105.561 122.321 104.238L123.364 103.433Z" fill="#627383"/>
<rect x="109.648" y="24.2305" width="41.0553" height="21.5714" rx="6" fill="white"/>
<rect x="113.822" y="27.71" width="36.8802" height="18.0922" rx="6" fill="#FEF2CE"/>
<rect x="109.648" y="24.2305" width="41.0553" height="21.5714" rx="6" stroke="#627383" stroke-width="2.5" stroke-linecap="round" stroke-linejoin="round"/>
<path d="M56.0485 84.9566C62.5932 82.9647 67.3554 76.8811 67.3554 69.6851C67.3554 60.8703 60.2096 53.7246 51.3949 53.7246C42.5803 53.7246 35.4344 60.8703 35.4344 69.6851C35.4344 76.8811 40.1966 82.9647 46.7413 84.9566C35.6522 86.7627 26.6947 94.9174 23.7212 105.569C22.5574 109.737 26.1748 113.31 30.503 113.31H72.2868C76.6151 113.31 80.2324 109.737 79.0686 105.569C76.0951 94.9174 67.1377 86.7627 56.0485 84.9566Z" fill="white"/>
<path d="M67.3549 69.686C67.3549 76.8819 62.5927 82.9656 56.0479 84.9574C58.4236 85.3443 60.701 86.0226 62.8431 86.9543C62.707 86.9999 62.5698 87.0435 62.4321 87.0855C62.8293 87.1502 63.2237 87.223 63.6151 87.3038C71.524 91.0265 77.4593 98.2505 79.4229 106.978C80.1968 110.418 77.265 113.311 73.7391 113.311H30.759C29.8308 112.184 29.3905 110.704 29.75 109.106C32.3007 97.7701 41.5518 88.9704 53.125 87.0855C46.5802 85.0937 41.8181 79.01 41.8181 71.814C41.8181 62.9992 48.9639 55.8535 57.7786 55.8535C58.3682 55.8535 58.9501 55.8855 59.5232 55.9478C64.2116 58.728 67.3549 63.8399 67.3549 69.686Z" fill="#FFD16A"/>
<path fill-rule="evenodd" clip-rule="evenodd" d="M48.2819 84.642C48.8173 74.1164 52.0361 64.2991 57.2677 55.8606C57.4373 55.8552 57.6077 55.8525 57.7786 55.8525C58.3683 55.8525 58.9502 55.8845 59.5233 55.9468C64.2117 58.7271 67.3549 63.8389 67.3549 69.685C67.3549 76.881 62.5927 82.9646 56.048 84.9564C58.4236 85.3434 60.7011 86.0216 62.8432 86.9533C62.707 86.9989 62.5699 87.0425 62.4322 87.0845C62.8294 87.1492 63.2237 87.222 63.6152 87.3028C71.524 91.0255 77.4593 98.2496 79.423 106.977C80.1968 110.417 77.265 113.31 73.7391 113.31H53.8246C50.2918 105.711 48.2871 97.2566 48.2051 88.3432C49.7861 87.7846 51.4307 87.3604 53.125 87.0845C51.3619 86.5479 49.7281 85.7143 48.2819 84.642Z" fill="#FDC113"/>
<path d="M67.3554 69.9058C67.3554 77.1018 62.5932 83.1855 56.0485 85.1773C67.7489 87.083 77.076 96.0563 79.5051 107.572C80.189 110.815 77.4375 113.531 74.1238 113.531H65.7594M28.1194 96.6872C29.1341 95.2876 30.2719 93.983 31.517 92.7894C35.6178 88.8584 40.882 86.1316 46.7414 85.1773C40.1966 83.1855 35.4344 77.1018 35.4344 69.9058C35.4344 61.0911 42.5802 53.9453 51.3949 53.9453C57.753 53.9453 63.2427 57.6631 65.8089 63.0432M24.7538 102.759C24.1294 104.302 23.635 105.911 23.2845 107.574C22.6007 110.816 25.3523 113.531 28.666 113.531H55.0305" stroke="#627383" stroke-width="2.5" stroke-linecap="round" stroke-linejoin="round"/>
<path d="M51.1961 68.7247C50.4858 68.0518 49.542 67.6416 48.5063 67.6416C44.0236 67.6416 40.0625 72.7512 40.0625 75.976C40.3066 75.976 40.5896 75.9791 40.9038 75.9826C43.6514 76.013 48.7876 76.0698 51.1961 74.2913C53.6047 76.0698 58.7409 76.013 61.4885 75.9826C61.8027 75.9791 62.0857 75.976 62.3298 75.976C62.3298 72.7512 58.3687 67.6416 53.886 67.6416C52.8503 67.6416 51.9065 68.0518 51.1961 68.7247Z" fill="#627383"/>
<path d="M130.522 32.2726C129.812 31.5996 128.868 31.1895 127.832 31.1895C123.35 31.1895 119.389 36.2991 119.389 39.5239C119.633 39.5239 119.916 39.527 120.23 39.5305C122.978 39.5608 128.114 39.6176 130.522 37.8392C132.931 39.6176 138.067 39.5608 140.815 39.5305C141.129 39.527 141.412 39.5239 141.656 39.5239C141.656 36.2991 137.695 31.1895 133.212 31.1895C132.176 31.1895 131.233 31.5996 130.522 32.2726Z" fill="#627383"/>
<path d="M74.1582 71.1211H88.4232V35.0166H103.732" stroke="#627383" stroke-width="2.5" stroke-linecap="round" stroke-linejoin="round"/>
</g>
<defs>
<clipPath id="clip0">
<path d="M0 0H200V160H0V0Z" fill="white"/>
</clipPath>
</defs>
</svg>
