<svg width="160" height="122" viewBox="0 0 160 122" fill="none" xmlns="http://www.w3.org/2000/svg">
<path fill-rule="evenodd" clip-rule="evenodd" d="M80.5794 48.2424C109.293 45.9987 130.425 2.25906 156.121 15.4871C183.369 29.5143 192.768 71.3253 181.538 100.216C171.096 127.079 134.448 123.996 108.979 136.767C82.9192 149.835 71.6581 171.055 49.2033 152.3C25.2084 132.259 50.0619 116.05 46.5979 84.6636C44.0934 61.9714 2.85842 42.8174 18.311 26.2554C34.2245 9.19942 57.5319 50.0433 80.5794 48.2424Z" fill="#FAFAFA"/>
<rect x="7" y="83.7734" width="34.0909" height="34.0909" rx="17.0455" fill="#FFF9E9"/>
<rect x="7" y="83.7734" width="34.0909" height="34.0909" rx="17.0455" stroke="#FEF2CE"/>
<path d="M30.1809 98.7803C30.1809 95.3802 27.4406 92.6367 24.0446 92.6367C20.6485 92.6367 17.9082 95.3802 17.9082 98.7803C17.9082 98.8741 17.9082 98.9913 17.9082 99.0851C17.9082 99.1789 17.9082 99.2962 17.9082 99.39C17.9082 101.695 20.7295 105.92 22.5461 108.401C23.298 109.428 24.7898 109.427 25.5407 108.399C27.3572 105.913 30.1809 101.68 30.1809 99.39C30.1809 99.2962 30.1809 99.1789 30.1809 99.0851C30.1809 98.9913 30.1809 98.8975 30.1809 98.7803ZM24.0446 101.899C22.4753 101.899 21.1872 100.633 21.1872 99.0382C21.1872 97.4437 22.4519 96.1775 24.0446 96.1775C25.6372 96.1775 26.902 97.4437 26.902 99.0382C26.902 100.633 25.6138 101.899 24.0446 101.899Z" fill="#627383"/>
<rect x="123.863" y="31.3643" width="34.0909" height="34.0909" rx="17.0455" fill="#FFF9E9"/>
<rect x="123.863" y="31.3643" width="34.0909" height="34.0909" rx="17.0455" stroke="#FEF2CE"/>
<path d="M147.727 46.3645V44.5918C147.727 42.9349 146.383 41.5918 144.727 41.5918H135.727C134.07 41.5918 132.727 42.9349 132.727 44.5918V49.5009C132.727 51.1577 134.07 52.5009 135.727 52.5009H145.681" stroke="#627383" stroke-width="2.5" stroke-linecap="round" stroke-linejoin="round"/>
<path d="M140.227 53.1826V55.9099" stroke="#627383" stroke-width="2.5" stroke-linecap="round" stroke-linejoin="round"/>
<path d="M136.818 55.9102H143.637" stroke="#627383" stroke-width="2.5" stroke-linecap="round" stroke-linejoin="round"/>
<rect x="145.682" y="46.3652" width="5.45455" height="10.9091" rx="2" stroke="#627383" stroke-width="2.5" stroke-linecap="round" stroke-linejoin="round"/>
<rect x="29.5918" y="33.2275" width="34.0909" height="34.0909" rx="17.0455" fill="#FFF9E9"/>
<rect x="29.5918" y="33.2275" width="34.0909" height="34.0909" rx="17.0455" stroke="#FEF2CE"/>
<g clip-path="url(#clip0)">
<path d="M55.1343 42.8851C52.5206 42.1999 50.5343 42.6215 48.6002 43.0432C46.8229 43.4122 45.1502 43.7284 42.9547 43.254V42.9905C42.9547 41.989 42.0661 41.2511 41.0729 41.4619C40.3411 41.5673 39.8184 42.3053 39.8184 43.0432V59.6007C39.8184 60.4967 40.4979 61.1819 41.3865 61.1819C42.2752 61.1819 42.9547 60.4967 42.9547 59.6007V52.7944C43.6865 52.9525 44.3661 53.0052 45.0456 53.0052C46.4047 53.0052 47.607 52.7417 48.8093 52.4781C50.6911 52.0565 52.4684 51.6875 54.8729 52.32L55.5002 52.4781V42.9905L55.1343 42.8851Z" fill="#627383"/>
</g>
<rect x="77.1367" y="26.4551" width="34.0909" height="34.0909" rx="17.0455" fill="#FFF9E9"/>
<rect x="77.1367" y="26.4551" width="34.0909" height="34.0909" rx="17.0455" stroke="#FEF2CE"/>
<circle cx="88.7278" cy="41.4553" r="3.52273" stroke="#627383" stroke-width="2.5"/>
<path d="M88.7285 45.2051V52.7051" stroke="#627383" stroke-width="2.5" stroke-linecap="round" stroke-linejoin="round"/>
<path d="M85.6602 49.6377H91.7965" stroke="#627383" stroke-width="2.5" stroke-linecap="round" stroke-linejoin="round"/>
<ellipse cx="97.8383" cy="45.4127" rx="4.77273" ry="4.77273" transform="rotate(-130 97.8383 45.4127)" stroke="#627383" stroke-width="2.5"/>
<path d="M100.711 43.002L106.456 38.181" stroke="#627383" stroke-width="2.5" stroke-linecap="round" stroke-linejoin="round"/>
<path d="M106.078 42.5039L106.797 37.8032L102.134 37.8032" stroke="#627383" stroke-width="2.5" stroke-linecap="round" stroke-linejoin="round"/>
<rect x="48.0898" y="70.0449" width="113.864" height="36.8182" rx="10" fill="white"/>
<path fill-rule="evenodd" clip-rule="evenodd" d="M161.21 76.253C161.69 77.4223 161.954 78.7025 161.954 80.0445V97.1119C161.954 102.635 157.477 107.112 151.954 107.112H55.1764C54.1449 105.539 53.5449 103.657 53.5449 101.636V84.8174C53.5449 79.2945 58.0221 74.8174 63.5449 74.8174H156.045C157.935 74.8174 159.703 75.3418 161.21 76.253Z" fill="#FFD16A"/>
<path fill-rule="evenodd" clip-rule="evenodd" d="M99.8789 107.112C102.332 94.6294 108.429 83.4532 117.017 74.7373H156.645C158.195 74.7373 159.663 75.0898 160.972 75.7191C161.601 77.0282 161.953 78.4954 161.953 80.045V97.1124C161.953 102.635 157.476 107.112 151.953 107.112H99.8789Z" fill="#FDC113"/>
<path d="M111.363 106.863H58.0898C52.567 106.863 48.0898 102.386 48.0898 96.8631V80.0449C48.0898 74.5221 52.567 70.0449 58.0898 70.0449H76.7262M147.499 106.863H152.635C158.158 106.863 162.635 102.386 162.635 96.8631V80.0449C162.635 74.5221 158.158 70.0449 152.635 70.0449H104.499M84.3626 70.0449H91.9308" stroke="#627383" stroke-width="2.5" stroke-linecap="round" stroke-linejoin="round"/>
<g opacity="0.8">
<circle opacity="0.5" cx="111.771" cy="89.8184" r="15" fill="white"/>
<circle opacity="0.5" cx="111.772" cy="89.8182" r="10.2" fill="white"/>
<circle opacity="0.5" cx="111.771" cy="89.8184" r="6" fill="white"/>
</g>
<path d="M130.176 108.193L142.521 108.351L112.795 89.6152L121.811 123.263L125.575 111.13L136.376 126.355L140.861 123.255L130.176 108.193Z" fill="white"/>
<path d="M124.799 113.721C122.693 110.729 121.066 107.316 120.062 103.567C119.101 99.9808 118.787 96.3761 119.048 92.8804L142.491 108.244L130.174 107.97L140.97 123.564L139.031 124.937C136.979 124.127 135.016 123.101 133.176 121.879L125.61 110.95L124.799 113.721Z" fill="#F4F5F6"/>
<path d="M127.658 98.983L112.795 89.6152L121.811 123.263L125.575 111.13L136.376 126.355L140.861 123.255L130.176 108.193L142.521 108.351L135.089 103.667" stroke="#627383" stroke-width="2.5" stroke-linecap="round" stroke-linejoin="round"/>
<defs>
<clipPath id="clip0">
<rect x="39.8184" y="41.4092" width="15.6818" height="21.1364" fill="white"/>
</clipPath>
</defs>
</svg>
