<svg width="160" height="122" viewBox="0 0 160 122" fill="none" xmlns="http://www.w3.org/2000/svg">
<path fill-rule="evenodd" clip-rule="evenodd" d="M68.0244 76.491C73.439 54.4344 48.8831 27.1896 65.5642 11.777C83.0106 -4.34273 111.476 6.58992 133.143 16.3243C157.169 27.1183 180.006 42.1139 188.548 67.0295C198.771 96.8514 208.724 141.179 181.242 156.626C152.744 172.645 128.014 125.269 95.9089 119.102C75.2801 115.14 48.3181 146.462 36.8158 128.885C25.1048 110.989 62.9255 97.2614 68.0244 76.491Z" fill="#FAFAFA"/>
<rect width="104.993" height="66.4364" rx="8" transform="matrix(-1 0 0 1 182.328 38)" fill="white"/>
<path opacity="0.07" d="M122.536 104.436C122.133 101.131 121.926 97.7661 121.926 94.3523C121.926 72.5599 130.38 52.7421 144.188 38H174.126C178.712 38 182.43 41.7181 182.43 46.3045V96.1318C182.43 100.718 178.712 104.436 174.126 104.436H122.536Z" fill="#53A7FF"/>
<path d="M182.307 45.7114H77.3552C77.6593 41.4017 81.2518 38 85.6389 38H174.023C178.41 38 182.002 41.4017 182.307 45.7114Z" fill="#DCE0E4"/>
<path d="M77.3349 87.8273V71.2182V46C77.3349 41.5817 80.9167 38 85.3349 38H174.328C178.746 38 182.328 41.5817 182.328 46V54.6091M107.736 104.436H129.832H174.328C178.746 104.436 182.328 100.855 182.328 96.4364V71.2182" stroke="#627383" stroke-width="2.5" stroke-linecap="round" stroke-linejoin="round"/>
<rect x="124.297" y="59.3545" width="44.4886" height="3.55909" rx="1.77955" fill="#DCE0E4"/>
<rect x="124.297" y="65.8799" width="27.2864" height="3.55909" rx="1.77954" fill="#DCE0E4"/>
<rect x="124.297" y="72.4043" width="38.5568" height="3.5591" rx="1.77955" fill="#DCE0E4"/>
<rect x="124.297" y="82.4883" width="35.5909" height="6.52499" rx="3" fill="#FDC113"/>
<path d="M89.7311 61.884C90.3129 61.399 91.043 61.1338 91.7966 61.1338H94.4918C94.8872 61.1338 95.237 61.393 95.3566 61.7746C96.6956 66.047 102.666 66.047 104.005 61.7746C104.124 61.393 104.474 61.1338 104.869 61.1338H107.565C108.318 61.1338 109.048 61.399 109.63 61.884L112.731 64.4689C113.126 64.7981 113.126 65.4103 112.731 65.7394L109.026 68.8277C108.839 68.984 108.73 69.2171 108.73 69.463V83.3494C108.73 85.1671 107.275 86.6406 105.48 86.6406H93.881C92.0861 86.6406 90.631 85.1671 90.631 83.3494V69.463C90.631 69.2171 90.5224 68.984 90.3349 68.8277L86.6301 65.7394C86.2353 65.4103 86.2353 64.7981 86.6301 64.4689L89.7311 61.884Z" fill="#FFD16A"/>
<path d="M96.8694 86.6406C96.5731 85.1044 96.418 83.5179 96.418 81.8951C96.418 73.2294 100.842 65.5971 107.555 61.1338H107.564C108.318 61.1338 109.048 61.399 109.63 61.884L112.731 64.469C113.126 64.798 113.126 65.4103 112.731 65.7395L109.026 68.8278C108.839 68.984 108.73 69.217 108.73 69.463V83.3494C108.73 85.1671 107.275 86.6406 105.48 86.6406H96.8694Z" fill="#FDC113"/>
<rect x="2" y="94.3516" width="98.4682" height="21.9477" rx="5" fill="white"/>
<path d="M11.212 100.022C11.469 99.8076 11.7917 99.6904 12.1246 99.6904H13.3156C13.4903 99.6904 13.6448 99.805 13.6977 99.9736C14.2893 101.861 16.9272 101.861 17.5188 99.9736C17.5717 99.805 17.7263 99.6904 17.901 99.6904H19.0919C19.4249 99.6904 19.7475 99.8076 20.0045 100.022L21.3747 101.164C21.5492 101.31 21.5492 101.58 21.3747 101.725L19.7378 103.09C19.6549 103.159 19.6069 103.262 19.6069 103.371V109.507C19.6069 110.31 18.964 110.961 18.1709 110.961H13.0457C12.2526 110.961 11.6096 110.31 11.6096 109.507V103.371C11.6096 103.262 11.5616 103.159 11.4788 103.09L9.84178 101.725C9.66732 101.58 9.66732 101.31 9.84178 101.164L11.212 100.022Z" fill="#FFD16A"/>
<path d="M14.3655 110.961C14.2346 110.282 14.166 109.581 14.166 108.864C14.166 105.035 16.1209 101.663 19.0871 99.6904H19.0912C19.4242 99.6904 19.7468 99.8076 20.0039 100.022L21.3741 101.164C21.5485 101.31 21.5485 101.58 21.3741 101.726L19.7371 103.09C19.6542 103.159 19.6062 103.262 19.6062 103.371V109.507C19.6062 110.31 18.9633 110.961 18.1702 110.961H14.3655Z" fill="#FDC113"/>
<path opacity="0.07" d="M70.8321 116.299C70.8165 115.807 70.8086 115.313 70.8086 114.816C70.8086 107.464 72.5346 100.515 75.6036 94.3516H96.3154C98.6086 94.3516 100.468 96.2106 100.468 98.5038V112.147C100.468 114.44 98.6086 116.299 96.3154 116.299H70.8321Z" fill="#53A7FF"/>
<path d="M25.9821 116.3L7.00057 116.3C4.23914 116.3 2.00057 114.061 2.00057 111.3L2.00057 99.3521C2.00057 96.5907 4.23915 94.3521 7.00057 94.3521L95.4688 94.3521C98.2302 94.3521 100.469 96.5907 100.469 99.3521L100.469 111.3C100.469 114.061 98.2302 116.3 95.4687 116.3L42.2946 116.3" stroke="#627383" stroke-width="2.5" stroke-linecap="round" stroke-linejoin="round"/>
<rect x="29.2871" y="100.283" width="33.2182" height="3.5591" rx="1.77955" fill="#DCE0E4"/>
<rect x="29.2871" y="106.809" width="18.3886" height="3.55908" rx="1.77954" fill="#DCE0E4"/>
<rect x="67.25" y="105.029" width="28.4727" height="6.52501" rx="3" fill="#FDC113"/>
<path d="M54.5402 75.6694L50.6193 75.6694C50.0014 75.6695 49.4442 76.0426 49.2067 76.6153C48.9692 77.188 49.0979 77.848 49.5331 78.2884L59.0414 87.9712L68.5536 78.2925C68.9878 77.8532 69.1171 77.1952 68.8817 76.6232C68.6462 76.0513 68.092 75.6769 67.4756 75.6734L63.6575 75.6734C63.7645 71.4351 64.5257 66.8167 69.7715 63.3633L68.2368 63.3633C61.2146 63.3643 55.3158 68.666 54.5402 75.6735L54.5402 75.6694Z" fill="#FFF2BD"/>
<path d="M50.6193 75.6694C50.0014 75.6695 49.4442 76.0426 49.2067 76.6153C48.9692 77.188 49.0979 77.848 49.5331 78.2884L59.0414 87.9712L68.5536 78.2925C68.9878 77.8532 69.1171 77.1952 68.8817 76.6232C68.6462 76.0513 68.092 75.6769 67.4756 75.6735L63.6575 75.6735C63.7645 71.4351 64.5257 66.8167 69.7715 63.3633L68.2368 63.3633C61.2146 63.3643 55.3158 68.666 54.5402 75.6735L50.6193 75.6694Z" stroke="#627383" stroke-width="2.5" stroke-linecap="round" stroke-linejoin="round"/>
</svg>
