<svg width="160" height="122" viewBox="0 0 160 122" fill="none" xmlns="http://www.w3.org/2000/svg">
<path fill-rule="evenodd" clip-rule="evenodd" d="M80.5794 48.2424C109.293 45.9987 130.425 2.25906 156.121 15.4871C183.369 29.5143 192.768 71.3253 181.538 100.216C171.096 127.079 134.448 123.996 108.979 136.767C82.9192 149.835 71.6581 171.055 49.2033 152.3C25.2084 132.259 50.0619 116.05 46.5979 84.6636C44.0934 61.9714 2.85842 42.8174 18.311 26.2554C34.2245 9.19942 57.5319 50.0433 80.5794 48.2424Z" fill="#FAFAFA"/>
<rect x="7" y="83.7734" width="34.0909" height="34.0909" rx="17.0455" fill="#FFF9E9"/>
<rect x="7" y="83.7734" width="34.0909" height="34.0909" rx="17.0455" stroke="#FEF2CE"/>
<path d="M30.1809 98.7803C30.1809 95.3802 27.4406 92.6367 24.0446 92.6367C20.6485 92.6367 17.9082 95.3802 17.9082 98.7803C17.9082 98.8741 17.9082 98.9913 17.9082 99.0851C17.9082 99.1789 17.9082 99.2962 17.9082 99.39C17.9082 101.695 20.7295 105.92 22.5461 108.401C23.298 109.428 24.7898 109.427 25.5407 108.399C27.3572 105.913 30.1809 101.68 30.1809 99.39C30.1809 99.2962 30.1809 99.1789 30.1809 99.0851C30.1809 98.9913 30.1809 98.8975 30.1809 98.7803ZM24.0446 101.899C22.4753 101.899 21.1872 100.633 21.1872 99.0382C21.1872 97.4437 22.4519 96.1775 24.0446 96.1775C25.6372 96.1775 26.902 97.4437 26.902 99.0382C26.902 100.633 25.6138 101.899 24.0446 101.899Z" fill="#627383"/>
<rect x="123.863" y="31.3643" width="34.0909" height="34.0909" rx="17.0455" fill="#FFF9E9"/>
<rect x="123.863" y="31.3643" width="34.0909" height="34.0909" rx="17.0455" stroke="#FEF2CE"/>
<path d="M147.727 46.3645V44.5918C147.727 42.9349 146.383 41.5918 144.727 41.5918H135.727C134.07 41.5918 132.727 42.9349 132.727 44.5918V49.5009C132.727 51.1577 134.07 52.5009 135.727 52.5009H145.681" stroke="#627383" stroke-width="2.5" stroke-linecap="round" stroke-linejoin="round"/>
<path d="M140.227 53.1826V55.9099" stroke="#627383" stroke-width="2.5" stroke-linecap="round" stroke-linejoin="round"/>
<path d="M136.818 55.9102H143.637" stroke="#627383" stroke-width="2.5" stroke-linecap="round" stroke-linejoin="round"/>
<rect x="145.682" y="46.3652" width="5.45455" height="10.9091" rx="2" stroke="#627383" stroke-width="2.5" stroke-linecap="round" stroke-linejoin="round"/>
<rect x="29.5918" y="33.2275" width="34.0909" height="34.0909" rx="17.0455" fill="#FFF9E9"/>
<rect x="29.5918" y="33.2275" width="34.0909" height="34.0909" rx="17.0455" stroke="#FEF2CE"/>
<g clip-path="url(#clip0)">
<path d="M55.1343 42.8851C52.5206 42.1999 50.5343 42.6215 48.6002 43.0432C46.8229 43.4122 45.1502 43.7284 42.9547 43.254V42.9905C42.9547 41.989 42.0661 41.2511 41.0729 41.4619C40.3411 41.5673 39.8184 42.3053 39.8184 43.0432V59.6007C39.8184 60.4967 40.4979 61.1819 41.3865 61.1819C42.2752 61.1819 42.9547 60.4967 42.9547 59.6007V52.7944C43.6865 52.9525 44.3661 53.0052 45.0456 53.0052C46.4047 53.0052 47.607 52.7417 48.8093 52.4781C50.6911 52.0565 52.4684 51.6875 54.8729 52.32L55.5002 52.4781V42.9905L55.1343 42.8851Z" fill="#627383"/>
</g>
<rect x="77.1367" y="26.4551" width="34.0909" height="34.0909" rx="17.0455" fill="#FFF9E9"/>
<rect x="77.1367" y="26.4551" width="34.0909" height="34.0909" rx="17.0455" stroke="#FEF2CE"/>
<circle cx="88.7278" cy="41.4553" r="3.52273" stroke="#627383" stroke-width="2.5"/>
<path d="M88.7285 45.2051V52.7051" stroke="#627383" stroke-width="2.5" stroke-linecap="round" stroke-linejoin="round"/>
<path d="M85.6602 49.6377H91.7965" stroke="#627383" stroke-width="2.5" stroke-linecap="round" stroke-linejoin="round"/>
<ellipse cx="97.8383" cy="45.4127" rx="4.77273" ry="4.77273" transform="rotate(-130 97.8383 45.4127)" stroke="#627383" stroke-width="2.5"/>
<path d="M100.711 43.002L106.456 38.181" stroke="#627383" stroke-width="2.5" stroke-linecap="round" stroke-linejoin="round"/>
<path d="M106.078 42.5039L106.797 37.8032L102.134 37.8032" stroke="#627383" stroke-width="2.5" stroke-linecap="round" stroke-linejoin="round"/>
<path d="M48 76C48 70.4772 52.4772 66 58 66H160C165.523 66 170 70.4772 170 76V105C170 110.523 165.523 115 160 115H58C52.4772 115 48 110.523 48 105V76Z" fill="#FFD16A"/>
<path d="M105.446 115C103.852 109.272 103 103.236 103 97C103 85.8148 105.741 75.2698 110.588 66H160C165.523 66 170 70.4772 170 76V105C170 110.523 165.523 115 160 115H144.441C143.66 115 142.909 115.305 142.349 115.85L137.423 120.643C136.647 121.398 135.41 121.398 134.634 120.643L129.708 115.85C129.148 115.305 128.397 115 127.615 115H105.446Z" fill="#FDC113"/>
<path d="M54.8906 82.7256C54.8906 77.2027 59.3678 72.7256 64.8906 72.7256H153.108C158.631 72.7256 163.108 77.2027 163.108 82.7256V98.2746C163.108 103.797 158.631 108.275 153.108 108.275H64.8906C59.3678 108.275 54.8906 103.797 54.8906 98.2746V82.7256Z" fill="white"/>
<path fill-rule="evenodd" clip-rule="evenodd" d="M53.6406 82.7256C53.6406 76.5124 58.6774 71.4756 64.8906 71.4756H153.108C159.321 71.4756 164.358 76.5124 164.358 82.7256V98.2746C164.358 104.488 159.321 109.525 153.108 109.525H64.8906C58.6774 109.525 53.6406 104.488 53.6406 98.2746V82.7256ZM64.8906 73.9756C60.0581 73.9756 56.1406 77.8931 56.1406 82.7256V98.2746C56.1406 103.107 60.0581 107.025 64.8906 107.025H153.108C157.94 107.025 161.858 103.107 161.858 98.2746V82.7256C161.858 77.8931 157.94 73.9756 153.108 73.9756H64.8906Z" fill="#627383"/>
<path fill-rule="evenodd" clip-rule="evenodd" d="M150.13 93.3649C151.748 91.0186 151.514 87.7793 149.427 85.6916C147.077 83.3398 143.266 83.3398 140.915 85.6916C138.565 88.0435 138.565 91.8566 140.915 94.2084C142.923 96.2177 145.998 96.5104 148.316 95.0864L152.727 99.4992C153.215 99.9874 154.006 99.9874 154.494 99.4992C154.982 99.0109 154.982 98.2192 154.494 97.7309L150.13 93.3649ZM147.66 87.4599C149.035 88.8351 149.035 91.0649 147.66 92.4402C146.286 93.8154 144.057 93.8154 142.683 92.4402C141.308 91.0649 141.308 88.8351 142.683 87.4599C144.057 86.0846 146.286 86.0846 147.66 87.4599Z" fill="#FDC113"/>
<path d="M69.4986 92.4108C69.3223 92.1356 68.9335 92.1007 68.7111 92.3403L67.9129 93.1999C67.827 93.2924 67.7793 93.4139 67.7793 93.5401V96.5C67.7793 96.7761 67.5554 97 67.2793 97H65.6426C65.3664 97 65.1426 96.7761 65.1426 96.5V84.7031C65.1426 84.427 65.3664 84.2031 65.6426 84.2031H67.2793C67.5554 84.2031 67.7793 84.427 67.7793 84.7031V88.4697C67.7793 88.9536 68.3981 89.1553 68.6833 88.7644L68.9395 88.4131L72.0501 84.397C72.1448 84.2747 72.2907 84.2031 72.4454 84.2031H74.4038C74.8229 84.2031 75.056 84.6878 74.7944 85.0153L71.126 89.6061C70.9909 89.7752 70.9799 90.0121 71.0989 90.1929L75.0657 96.2253C75.2844 96.5578 75.0459 97 74.648 97H72.711C72.5406 97 72.3819 96.9132 72.29 96.7696L69.4986 92.4108Z" fill="#627383"/>
<path d="M80.8498 97.1758C79.4553 97.1758 78.3186 96.748 77.4396 95.8926C76.5666 95.0371 76.1301 93.8975 76.1301 92.4736V92.2275C76.1301 91.2725 76.3146 90.4199 76.6838 89.6699C77.0529 88.9141 77.5744 88.334 78.2482 87.9297C78.9279 87.5195 79.7014 87.3145 80.5686 87.3145C81.8693 87.3145 82.8918 87.7246 83.6359 88.5449C84.3859 89.3652 84.7609 90.5283 84.7609 92.0342V92.5713C84.7609 92.8474 84.5371 93.0713 84.2609 93.0713H79.2757C78.9735 93.0713 78.7351 93.3404 78.8332 93.6262C78.9603 93.9965 79.1638 94.3096 79.4436 94.5654C79.8596 94.9404 80.384 95.1279 81.0168 95.1279C81.7703 95.1279 82.3969 94.9177 82.8968 94.4974C83.1358 94.2964 83.5024 94.2791 83.7104 94.512L84.2938 95.1652C84.4489 95.3389 84.4663 95.5993 84.312 95.7737C83.9646 96.1663 83.5312 96.4843 83.0119 96.7275C82.3615 97.0264 81.6408 97.1758 80.8498 97.1758ZM80.5598 89.3711C80.0559 89.3711 79.6457 89.541 79.3293 89.8809C79.1179 90.1122 78.9581 90.4113 78.8499 90.7784C78.7641 91.0695 79.0024 91.3398 79.3059 91.3398H82.0627C82.1743 91.3398 82.2648 91.2493 82.2648 91.1377C82.2531 90.5752 82.1008 90.1416 81.8078 89.8369C81.5148 89.5264 81.0988 89.3711 80.5598 89.3711Z" fill="#627383"/>
<path d="M89.4586 91.7972C89.6008 92.2734 90.2754 92.2729 90.417 91.7965L91.5904 87.8478C91.6535 87.6357 91.8484 87.4902 92.0697 87.4902H93.7179C94.0619 87.4902 94.3032 87.8296 94.1901 88.1546L90.598 98.4766L90.3871 98.9775C89.8188 100.22 88.8813 100.841 87.5746 100.841C87.3236 100.841 87.0698 100.815 86.8134 100.764C86.5956 100.72 86.4496 100.521 86.4496 100.299V99.1358C86.4496 98.9236 86.6242 98.753 86.8363 98.7578C87.3168 98.7578 87.6742 98.6846 87.9086 98.5381C88.1488 98.3916 88.3363 98.1484 88.4711 97.8086L88.7047 97.1971C88.7468 97.0869 88.7486 96.9652 88.7096 96.8538L85.6711 88.1551C85.5576 87.8301 85.7989 87.4902 86.1431 87.4902H87.7998C88.0208 87.4902 88.2156 87.6354 88.2789 87.8471L89.4586 91.7972Z" fill="#627383"/>
<path d="M103.434 91.5888C103.578 92.0914 104.299 92.0643 104.405 91.5523L105.16 87.8893C105.207 87.657 105.412 87.4902 105.649 87.4902H107.05C107.377 87.4902 107.616 87.7977 107.535 88.1138L105.364 96.6236C105.308 96.845 105.108 97 104.88 97H103.513C103.292 97 103.098 96.8554 103.034 96.6441L101.818 92.6051C101.675 92.1306 101.004 92.1306 100.861 92.6051L99.6448 96.6441C99.5812 96.8554 99.3867 97 99.166 97H97.808C97.5795 97 97.38 96.845 97.3235 96.6236L95.1528 88.1138C95.0722 87.7977 95.311 87.4902 95.6373 87.4902H97.038C97.2754 87.4902 97.4801 87.6572 97.5278 87.8898L98.277 91.5457C98.382 92.0576 99.1028 92.0858 99.2474 91.5836L100.321 87.852C100.383 87.6378 100.579 87.4902 100.802 87.4902H101.885C102.108 87.4902 102.305 87.6382 102.366 87.8528L103.434 91.5888Z" fill="#627383"/>
<path d="M108.864 92.1572C108.864 91.2139 109.046 90.373 109.409 89.6348C109.772 88.8965 110.294 88.3252 110.973 87.9209C111.659 87.5166 112.453 87.3145 113.355 87.3145C114.638 87.3145 115.684 87.707 116.493 88.4922C117.307 89.2773 117.762 90.3438 117.855 91.6914L117.873 92.3418C117.873 93.8008 117.466 94.9727 116.651 95.8574C115.837 96.7363 114.744 97.1758 113.373 97.1758C112.002 97.1758 110.906 96.7363 110.086 95.8574C109.271 94.9785 108.864 93.7832 108.864 92.2715V92.1572ZM111.404 92.3418C111.404 93.2441 111.574 93.9355 111.914 94.416C112.254 94.8906 112.74 95.1279 113.373 95.1279C113.988 95.1279 114.469 94.8936 114.814 94.4248C115.16 93.9502 115.333 93.1943 115.333 92.1572C115.333 91.2725 115.16 90.5869 114.814 90.1006C114.469 89.6143 113.982 89.3711 113.355 89.3711C112.734 89.3711 112.254 89.6143 111.914 90.1006C111.574 90.5811 111.404 91.3281 111.404 92.3418Z" fill="#627383"/>
<path d="M125.089 89.308C125.085 89.6079 124.819 89.8338 124.52 89.8141C124.395 89.8059 124.277 89.8018 124.167 89.8018C123.256 89.8018 122.642 90.0943 122.326 90.6794C122.292 90.7428 122.277 90.8147 122.277 90.8867V96.5C122.277 96.7761 122.053 97 121.777 97H120.237C119.961 97 119.737 96.7761 119.737 96.5V87.9902C119.737 87.7141 119.961 87.4902 120.237 87.4902H121.884C122.026 87.4902 122.144 87.6006 122.152 87.7423C122.169 88.0072 122.554 88.111 122.747 87.9288C123.181 87.5192 123.707 87.3145 124.325 87.3145C124.472 87.3145 124.614 87.3249 124.752 87.3457C124.971 87.3789 125.114 87.5811 125.111 87.8029L125.089 89.308Z" fill="#627383"/>
<rect x="126" y="80" width="3" height="22" rx="1.5" fill="#FDC113"/>
<defs>
<clipPath id="clip0">
<rect x="39.8184" y="41.4092" width="15.6818" height="21.1364" fill="white"/>
</clipPath>
</defs>
</svg>
