<svg width="16" height="16" viewBox="0 0 16 16" fill="none" xmlns="http://www.w3.org/2000/svg">
<path fill-rule="evenodd" clip-rule="evenodd" d="M8 0C3.58172 0 0 3.58172 0 8C0 12.0202 2.9654 15.3478 6.82817 15.9148V10.3228H4.91774V8.11038H6.82817V6.47875C6.82817 4.58529 7.98461 3.55423 9.67376 3.55423C10.4829 3.55423 11.1783 3.61447 11.3809 3.64143V5.62028L10.2094 5.62079C9.29082 5.62079 9.11295 6.05731 9.11295 6.69787V8.11038H11.3038L11.0185 10.3228H9.11295V15.9232C13.0044 15.3816 16 12.0406 16 8C16 3.58172 12.4183 0 8 0ZM8.03033 15.9999H7.96967C7.97978 16 7.98989 16 8 16C8.01011 16 8.02022 16 8.03033 15.9999Z" fill="#4267B2"/>
</svg>
