<svg width="22" height="22" viewBox="0 0 22 22" fill="none" xmlns="http://www.w3.org/2000/svg">
<path d="M1.07188 8.28605C0.900497 8.81014 1.0411 9.38596 1.43483 9.77242L4.93981 13.2235C5.08961 13.3711 5.15777 13.5825 5.12236 13.7897L4.29551 18.6628C4.19815 19.2024 4.41667 19.7502 4.85883 20.0752C5.301 20.4001 5.88976 20.4454 6.37659 20.1921L10.7084 17.8885C10.8937 17.7931 11.1138 17.7931 11.299 17.8885L15.6309 20.1921C15.836 20.303 16.0655 20.3612 16.2988 20.3615C16.7245 20.3579 17.127 20.1673 17.3992 19.8405C17.6715 19.5136 17.7859 19.0837 17.7119 18.665L16.8851 13.7897C16.8497 13.5825 16.9178 13.3711 17.0676 13.2235L20.5726 9.77028C20.8607 9.48171 21.0151 9.08624 20.9988 8.67911C20.9825 8.27199 20.7969 7.8901 20.4867 7.62543C20.3336 7.54233 20.1672 7.48645 19.9949 7.46028L14.9758 6.72245C14.7621 6.69166 14.5773 6.55767 14.4819 6.36426L12.2376 1.82362C11.9952 1.33075 11.4986 1.01332 10.949 1C10.4194 1.01736 9.94347 1.32736 9.71406 1.80432L7.55136 6.23772C7.45856 6.42453 7.28085 6.55484 7.07458 6.58733L2.22946 7.29942C1.70613 7.38007 1.23228 7.78319 1.07188 8.28605Z" fill="white"/>
<path fill-rule="evenodd" clip-rule="evenodd" d="M11.7812 1.28152C11.6006 1.41615 11.4515 1.59404 11.3503 1.80441L9.18759 6.23781C9.09479 6.42462 8.91708 6.55493 8.71081 6.58742L3.86569 7.29951C3.34236 7.38016 2.86851 7.78329 2.70811 8.28614C2.53673 8.81023 2.67733 9.38605 3.07106 9.77252L6.57604 13.2236C6.72584 13.3712 6.794 13.5826 6.75859 13.7898L5.93174 18.6629C5.83438 19.2025 6.0529 19.7503 6.49506 20.0753C6.50935 20.0858 6.52378 20.096 6.53836 20.1059L10.7083 17.8884C10.8936 17.793 11.1136 17.793 11.2989 17.8884L11.822 18.1666L12.3447 17.8886C12.5299 17.7932 12.75 17.7932 12.9353 17.8886L17.1067 20.1069C17.2148 20.0326 17.3134 19.9432 17.3991 19.8403C17.6713 19.5135 17.7857 19.0835 17.7118 18.6648L16.885 13.7896C16.8495 13.5824 16.9177 13.371 17.0675 13.2234L20.5725 9.77016C20.8605 9.48159 21.015 9.08612 20.9987 8.679C20.9824 8.27187 20.7968 7.88999 20.4866 7.62531C20.3335 7.54221 20.167 7.48633 19.9948 7.46016L14.9757 6.72233C14.762 6.69154 14.5772 6.55755 14.4817 6.36415L12.2374 1.8235C12.1297 1.60441 11.9717 1.41998 11.7812 1.28152Z" fill="#FFD16A"/>
<path fill-rule="evenodd" clip-rule="evenodd" d="M9.31457 18.6297C9.28343 18.2104 9.26758 17.7868 9.26758 17.3595C9.26758 12.763 11.1016 8.59481 14.0778 5.54691L14.4818 6.36425C14.5773 6.55765 14.7621 6.69164 14.9758 6.72244L19.9949 7.46026C20.1671 7.48643 20.3336 7.54232 20.4867 7.62542C20.7969 7.89009 20.9825 8.27197 20.9988 8.6791C21.0151 9.08623 20.8606 9.48169 20.5726 9.77026L17.0676 13.2235C16.9178 13.3711 16.8496 13.5825 16.8851 13.7897L17.7119 18.6649C17.7858 19.0836 17.6714 19.5136 17.3992 19.8404C17.3136 19.9433 17.215 20.0326 17.1069 20.1069L12.9354 17.8885C12.7501 17.7931 12.53 17.7931 12.3448 17.8885L11.8219 18.1666L11.299 17.8885C11.1137 17.7931 10.8937 17.7931 10.7084 17.8885L9.31457 18.6297Z" fill="#FDC113"/>
<path d="M16.8851 13.7897C16.8497 13.5825 16.9178 13.3711 17.0676 13.2235L20.5726 9.77028C20.8607 9.48171 21.0151 9.08624 20.9988 8.67911C20.9825 8.27199 20.7969 7.8901 20.4867 7.62543C20.3336 7.54233 20.1672 7.48645 19.9949 7.46028L14.9758 6.72245C14.7621 6.69166 14.5773 6.55767 14.4819 6.36426L12.2376 1.82362C11.9952 1.33075 11.4986 1.01332 10.949 1C10.4194 1.01736 9.94347 1.32736 9.71406 1.80432L8.90305 3.46684M4.04638 7.03238L2.22946 7.29941C1.70613 7.38007 1.23228 7.78319 1.07188 8.28604C0.900497 8.81014 1.0411 9.38596 1.43483 9.77242L4.93981 13.2235C5.08961 13.3711 5.15777 13.5825 5.12236 13.7897L4.29551 18.6628C4.19815 19.2024 4.41667 19.7502 4.85883 20.0752C5.301 20.4001 5.88976 20.4454 6.37659 20.1921L10.7084 17.8885C10.8937 17.7931 11.1138 17.7931 11.299 17.8885L15.6309 20.1921C15.836 20.303 16.0655 20.3612 16.2988 20.3615C16.7245 20.3579 17.127 20.1673 17.3992 19.8405C17.6715 19.5136 17.7859 19.0836 17.7119 18.665L17.5052 17.4461" stroke="#46525D" stroke-width="1.5" stroke-linecap="round" stroke-linejoin="round"/>
</svg>
