<svg width="16" height="16" viewBox="0 0 16 16" fill="none" xmlns="http://www.w3.org/2000/svg">
<path d="M15.1697 6.56749H14.5813V6.5375H8V9.4625H12.1333C11.5291 11.1649 9.90953 12.3875 8 12.3875C5.57631 12.3875 3.6125 10.4237 3.6125 8C3.6125 5.57631 5.57631 3.6125 8 3.6125C9.1183 3.6125 10.1366 4.03383 10.9107 4.72366L12.9788 2.65559C11.6734 1.43875 9.92667 0.6875 8 0.6875C3.96099 0.6875 0.6875 3.96099 0.6875 8C0.6875 12.039 3.96099 15.3125 8 15.3125C12.039 15.3125 15.3125 12.039 15.3125 8C15.3125 7.51012 15.2625 7.03167 15.1697 6.56749Z" fill="#FFC107"/>
<path d="M1.53076 4.59655L3.93446 6.35897C4.5843 4.74937 6.1582 3.6125 8.00061 3.6125C9.11891 3.6125 10.1372 4.03383 10.9113 4.72366L12.9794 2.65559C11.674 1.43875 9.92728 0.6875 8.00061 0.6875C5.1913 0.6875 2.75618 2.27283 1.53076 4.59655Z" fill="#FF3D00"/>
<path d="M8.00068 15.3124C9.88879 15.3124 11.6055 14.5897 12.9038 13.4143L10.64 11.499C9.90593 12.0546 8.9933 12.3874 8.00068 12.3874C6.09829 12.3874 4.4844 11.1748 3.87598 9.48236L1.49084 11.3191C2.70055 13.687 5.15852 15.3124 8.00068 15.3124Z" fill="#4CAF50"/>
<path d="M15.1697 6.56756V6.53757H14.5813H8V9.46257H12.1333C11.8433 10.2809 11.3163 10.9851 10.6379 11.4992H10.6394L12.9031 13.4145C12.7431 13.5587 15.3125 11.6563 15.3125 8.00007C15.3125 7.51019 15.2625 7.03173 15.1697 6.56756Z" fill="#1976D2"/>
</svg>
