<svg width="200" height="160" viewBox="0 0 200 160" fill="none" xmlns="http://www.w3.org/2000/svg">
<path fill-rule="evenodd" clip-rule="evenodd" d="M108.228 4.16381C130.816 -6.28839 164.249 3.75228 176.911 25.1806C189.331 46.1981 166.229 69.9686 161.232 93.8643C157.994 109.347 166.82 130.828 153.153 138.789C139.059 147 124.282 121.861 108.228 124.741C83.3889 129.196 66.9192 168.226 43.6638 158.428C22.8589 149.663 25.8831 114.543 34.9417 93.8643C42.4886 76.6367 71.099 83.2006 82.9988 68.6355C98.1774 50.0572 86.455 14.2384 108.228 4.16381Z" fill="#FAFAFA"/>
<path d="M154.057 86.2177C155.592 79.2295 152.926 71.9866 147.227 67.6608L122.251 48.7024C119.912 46.9264 116.91 46.2674 114.042 46.9L83.4213 53.6526C76.4345 55.1933 70.9796 60.6533 69.4454 67.6415L64.152 91.7523C62.858 97.6462 66.86 103.533 73.0907 104.901L135.139 118.523C141.37 119.891 147.47 116.222 148.764 110.328L154.057 86.2177Z" fill="white"/>
<path fill-rule="evenodd" clip-rule="evenodd" d="M151.776 72.6851C154.213 76.6604 155.093 81.4972 154.057 86.2177L148.764 110.329C147.47 116.222 141.37 119.891 135.139 118.523L73.0902 104.901C72.413 104.752 71.7622 104.55 71.1416 104.301C70.4174 102.424 70.2161 100.348 70.6719 98.2724L75.9653 74.1616C77.4995 67.1734 82.9544 61.7134 89.9411 60.1726L120.561 53.4201C123.43 52.7875 126.431 53.4465 128.771 55.2225L151.776 72.6851Z" fill="#FDC113"/>
<rect x="97.403" y="32" width="49.8205" height="56.5271" rx="3" transform="rotate(14 97.403 32)" fill="white"/>
<path d="M103.656 46.5247C104.057 44.917 105.685 43.9387 107.293 44.3395L143.426 53.3486L132.794 95.9894C132.394 97.5971 130.765 98.5754 129.158 98.1745L95.9353 89.8912C94.3276 89.4904 93.3493 87.8622 93.7502 86.2546L103.656 46.5247Z" fill="#FFF9E9"/>
<rect x="95.0953" y="57.0972" width="42.6239" height="3.40992" rx="1.70496" transform="rotate(14 95.0953 57.0972)" fill="#DCE0E4"/>
<rect x="93.4728" y="63.605" width="42.6239" height="3.40992" rx="1.70496" transform="rotate(14 93.4728 63.605)" fill="#DCE0E4"/>
<rect x="94.6278" y="70.854" width="36.9407" height="3.40992" rx="1.70496" transform="rotate(14 94.6278 70.854)" fill="#DCE0E4"/>
<path d="M119.415 51.2141C121.071 51.1294 122.548 49.978 122.97 48.2858C123.487 46.2128 122.225 44.1134 120.152 43.5966C118.079 43.0797 115.98 44.3412 115.463 46.4141C115.041 48.1064 115.804 49.8163 117.227 50.6684C114.212 50.418 111.357 52.164 110.212 54.9745C110.004 55.486 110.337 56.033 110.873 56.1666L122.444 59.0517C122.98 59.1853 123.531 58.8586 123.587 58.3092C123.896 55.2903 122.195 52.4082 119.415 51.2141Z" fill="#FFC107"/>
<path fill-rule="evenodd" clip-rule="evenodd" d="M100.988 34.1564C99.5008 33.7856 97.9947 34.6906 97.6239 36.1776L85.8842 83.2632C85.5134 84.7503 86.4183 86.2564 87.9054 86.6271L128.484 96.7444C129.971 97.1152 131.477 96.2102 131.848 94.7232L143.587 47.6376C143.958 46.1505 143.053 44.6445 141.566 44.2737L115.234 37.7085C114.578 37.5448 114.178 36.8799 114.342 36.2235C114.506 35.567 115.171 35.1676 115.827 35.3312L142.159 41.8965C144.959 42.5946 146.663 45.4303 145.964 48.2303L134.225 95.3159C133.527 98.1159 130.691 99.8198 127.891 99.1216L87.3127 89.0044C84.5127 88.3062 82.8088 85.4705 83.5069 82.6705L95.2467 35.5849C95.9448 32.785 98.7806 31.0811 101.581 31.7792L103.742 32.3181C104.398 32.4817 104.798 33.1466 104.634 33.803C104.471 34.4595 103.806 34.859 103.149 34.6953L100.988 34.1564Z" fill="#627383"/>
<path d="M73.09 104.901L135.139 118.523C137.858 119.12 140.563 118.706 142.863 117.532L113.324 88.7329C111.224 86.6851 108.143 86.0086 105.377 86.9882L66.4917 100.765C68.0879 102.794 70.3711 104.304 73.09 104.901Z" fill="#FFD16A"/>
<path fill-rule="evenodd" clip-rule="evenodd" d="M154.467 81.4647C154.538 83.0377 154.406 84.6345 154.058 86.2182L148.765 110.329C147.987 113.87 145.475 116.608 142.241 117.933L120.135 98.1278C117.904 96.1292 118.71 92.4607 121.573 91.5803L154.467 81.4647ZM77.9835 105.976L110.431 95.9974C113.294 95.117 114.1 91.4485 111.869 89.4498L83.219 63.7812C79.4107 66.76 76.6569 71.0144 75.5794 75.9223L70.8064 97.6626C70.2946 99.994 70.5262 102.315 71.3429 104.38C71.9028 104.593 72.4865 104.769 73.0911 104.901L77.9835 105.976Z" fill="#FFD16A"/>
<path fill-rule="evenodd" clip-rule="evenodd" d="M91.9133 93.1657C87.6965 84.9014 85.621 75.4946 86.2413 65.8116L105.347 82.9292C107.578 84.9279 106.772 88.5963 103.909 89.4767L91.9133 93.1657ZM153.67 87.9778C154.747 83.07 154.029 78.0532 151.818 73.7531L115.051 85.0596C112.188 85.94 111.383 89.6085 113.613 91.6072L142.661 117.632C145.728 116.14 148.108 113.309 148.897 109.718L153.67 87.9778Z" fill="#FDC113"/>
<path fill-rule="evenodd" clip-rule="evenodd" d="M111.958 92.172C110.14 90.5649 107.499 89.9851 105.175 90.6827L68.8131 101.599C70.0812 102.582 71.6198 103.323 73.3517 103.704L135.401 117.326C137.133 117.706 138.84 117.678 140.403 117.317L111.958 92.172ZM104.471 88.3362C107.607 87.3948 111.128 88.1679 113.581 90.3363L113.581 90.3363L143.614 116.884C143.926 117.161 144.077 117.577 144.013 117.989C143.95 118.401 143.681 118.752 143.3 118.922C140.796 120.034 137.847 120.372 134.875 119.719L72.8264 106.097C69.8548 105.444 67.318 103.902 65.5107 101.844C65.2356 101.53 65.1388 101.098 65.2537 100.698C65.3687 100.297 65.6796 99.9819 66.079 99.862L104.471 88.3362L104.471 88.3362Z" fill="#627383"/>
<path fill-rule="evenodd" clip-rule="evenodd" d="M93.5761 51.4126C93.7218 52.0733 93.3044 52.727 92.6437 52.8727L83.6851 54.8483C77.1646 56.2863 72.0737 61.3819 70.6419 67.9037L70.2296 69.7816C70.0845 70.4424 69.4312 70.8605 68.7704 70.7154C68.1096 70.5703 67.6915 69.917 67.8366 69.2562L68.2489 67.3783C69.8855 59.9237 75.7044 54.0994 83.1575 52.4558L92.1161 50.4802C92.7768 50.3345 93.4304 50.752 93.5761 51.4126ZM140.134 62.2762C140.543 61.7374 141.311 61.6321 141.85 62.0412L147.968 66.6846C154.047 71.2991 156.891 79.0253 155.254 86.4799L149.961 110.591C148.508 117.207 141.705 121.219 134.877 119.719L72.828 106.097C66 104.598 61.5029 98.1056 62.9555 91.4891C63.1006 90.8283 63.7539 90.4102 64.4147 90.5553C65.0755 90.7004 65.4936 91.3537 65.3485 92.0145C64.2132 97.1858 67.7199 102.467 73.3533 103.704L135.402 117.326C141.036 118.563 146.432 115.237 147.568 110.065L152.861 85.9545C154.293 79.4327 151.805 72.6732 146.486 68.636L140.369 63.9926C139.83 63.5836 139.725 62.8151 140.134 62.2762Z" fill="#627383"/>
<path fill-rule="evenodd" clip-rule="evenodd" d="M75.9433 56.2959C76.4108 55.9302 77.0733 55.9524 77.5154 56.3485L106.165 82.0171L105.348 82.9294L106.165 82.0171C109.106 84.6516 108.044 89.4874 104.27 90.6479L66.9929 102.111C66.5171 102.258 66.0001 102.101 65.6848 101.716C63.2972 98.7985 62.2168 94.8517 63.0889 90.8795L65.4754 80.0094C65.6204 79.3486 66.2737 78.9305 66.9346 79.0755C67.5954 79.2206 68.0134 79.8739 67.8684 80.5347L65.4819 91.4049C64.8397 94.3298 65.5055 97.2367 67.0922 99.5174L103.55 88.3061C105.502 87.7058 106.051 85.2045 104.53 83.8418L76.6644 58.8755C73.4849 61.6356 71.1941 65.3867 70.2549 69.6646C70.1098 70.3254 69.4565 70.7435 68.7957 70.5984C68.1349 70.4533 67.7168 69.8 67.8619 69.1392C69.0017 63.9472 71.9152 59.4466 75.9433 56.2959ZM151.459 72.5825C152.027 72.408 152.637 72.6654 152.909 73.1934C155.247 77.7416 156.007 83.0488 154.867 88.2408L150.094 109.981C149.222 113.953 146.588 117.085 143.197 118.734C142.75 118.951 142.215 118.877 141.844 118.544L112.797 92.5198L113.614 91.6074L112.797 92.5198C109.856 89.8852 110.918 85.0495 114.692 83.889L114.98 84.8257L114.692 83.889L123.884 81.0624C124.53 80.8635 125.216 81.2265 125.414 81.8732C125.613 82.5198 125.25 83.2053 124.604 83.4041L115.412 86.2308C113.46 86.831 112.911 89.3323 114.432 90.695L142.84 116.148C145.237 114.741 147.059 112.381 147.701 109.456L152.474 87.7154C153.413 83.4375 152.904 79.0718 151.173 75.2336L133.796 80.5775C133.149 80.7764 132.463 80.4134 132.265 79.7667C132.066 79.12 132.429 78.4346 133.075 78.2357L151.459 72.5825Z" fill="#627383"/>
</svg>
