<svg width="24" height="24" viewBox="0 0 24 24" fill="none" xmlns="http://www.w3.org/2000/svg">
<path d="M13 23.5H10.4C9.50002 23.5 8.69995 22.7 8.69995 21.8V20.1L7.90002 19.8L6.69995 20.9C6.09995 21.5 4.90005 21.5 4.30005 20.9L2.5 19.1C2.2 18.8 2 18.4 2 17.9C2 17.4 2.2 17 2.5 16.7L3.69995 15.5L3.40002 14.7H1.69995C0.799951 14.7 0 13.9 0 13V10.4C0 9.49999 0.799951 8.7 1.69995 8.7H3.40002L3.69995 7.89999L2.59998 6.7C2.29998 6.4 2.09998 6 2.09998 5.5C2.09998 5 2.29998 4.6 2.59998 4.3L4.40002 2.5C5.00002 1.9 6.20005 1.9 6.80005 2.5L8 3.7L8.80005 3.39999V1.7C8.80005 0.799997 9.6 0 10.5 0H13.1C14 0 14.8 0.799997 14.8 1.7V3.39999L15.6 3.7L16.8 2.60001C17.1 2.30001 17.6 2.10001 18 2.10001C18.5 2.10001 18.9 2.30001 19.2 2.60001L21 4.39999C21.3 4.69999 21.5 5.10001 21.5 5.60001C21.5 6.10001 21.3 6.5 21 6.8L19.8 8L20.1 8.8H21.8C22.7 8.8 23.5 9.6 23.5 10.5V13.1C23.5 14 22.7 14.8 21.8 14.8H20.1L19.8 15.6L20.9 16.8C21.2 17.1 21.4 17.5 21.4 18C21.4 18.5 21.2 18.9 20.9 19.2L19.1 21C18.5 21.6 17.3 21.6 16.7 21L15.5 19.8L14.7 20.1V21.8C14.7 22.8 13.9 23.5 13 23.5ZM10.7 21.5H12.7V20.1C12.7 19.3 13.3 18.5 14 18.2L14.7 17.9C14.9 17.8 15.2 17.7 15.5 17.7C16 17.7 16.6 17.9 16.9 18.3L17.9 19.3L19.3 17.9L18.3 16.9C17.7 16.3 17.6 15.3 17.9 14.6L18.2 13.9C18.4 13.2 19.2 12.6 20 12.6H21.4V10.6H20C19.2 10.6 18.4 10 18.1 9.2L17.8 8.5C17.5 7.8 17.6 6.9 18.2 6.3L19.2 5.3L17.8 3.89999L16.8 4.89999C16.2 5.49999 15.2 5.6 14.5 5.3L13.8 5C13.1 4.8 12.5 4 12.5 3.2V2H10.5V3.39999C10.5 4.19999 9.89995 5 9.19995 5.3L8.5 5.60001C8.3 5.70001 7.99995 5.8 7.69995 5.8C7.19995 5.8 6.60005 5.6 6.30005 5.2L5.30005 4.2L3.90002 5.60001L4.90002 6.60001C5.50002 7.20001 5.60005 8.19999 5.30005 8.89999L5 9.60001C4.8 10.3 3.99995 10.9 3.19995 10.9H1.80005V12.9H3.19995C3.99995 12.9 4.79998 13.5 5.09998 14.2L5.40002 14.9C5.70002 15.6 5.6 16.5 5 17.1L4 18.1L5.40002 19.5L6.40002 18.5C7.00002 17.9 7.99995 17.8 8.69995 18.1L9.40002 18.4C10.1 18.6 10.7 19.4 10.7 20.2V21.5ZM11.7 16.2C9.29995 16.2 7.30005 14.2 7.30005 11.8C7.30005 9.4 9.29995 7.39999 11.7 7.39999C14.1 7.39999 16.1 9.4 16.1 11.8C16.1 14.2 14.1 16.2 11.7 16.2ZM11.7 9.39999C10.4 9.39999 9.30005 10.5 9.30005 11.8C9.30005 13.1 10.4 14.2 11.7 14.2C13 14.2 14.1 13.1 14.1 11.8C14.1 10.5 13 9.39999 11.7 9.39999Z" fill="black"/>
</svg>
