<?xml version="1.0" encoding="UTF-8"?>
<svg width="80px" height="25px" viewBox="0 0 80 25" version="1.1" xmlns="http://www.w3.org/2000/svg">
    <!-- Generator: Sketch 48.1 (47250) - http://www.bohemiancoding.com/sketch -->
    <title>Group</title>
    <desc>Created with Sketch.</desc>
    <defs></defs>
    <g id="Terms-and-conditions" stroke="none" stroke-width="1" fill="none" fill-rule="evenodd" transform="translate(-20.000000, -19.000000)">
        <g id="Group" transform="translate(20.000000, 19.000000)" fill="#424242">
            <path d="M33.9717998,10.0757407 L33.9717998,7.24240741 L28,7.24240741 L28,24 L33.9717998,24 L33.9717998,15.3866667 C34.2836605,13.0224074 36.5562621,11.5648148 40,11.845 L40,7 C37.3491844,7.03148148 35.2457838,8.105 33.9717998,10.0757407 Z" id="Shape"></path>
            <rect id="Rectangle-path" x="74" y="8" width="6" height="17"></rect>
            <path d="M76.9984119,6 C78.7453679,6 80,4.75553097 80,2.98672566 C80,1.21792035 78.7485442,0 77.0015881,0 C75.2546321,0 74,1.24446903 74,2.98672566 C74,4.7289823 75.2514558,6 76.9984119,6 Z" id="Shape"></path>
            <rect id="Rectangle-path" x="43" y="8" width="6" height="17"></rect>
            <path d="M46.0015881,0 C44.2546321,0 43,1.24378109 43,2.98507463 C43,4.72636816 44.2514558,6 45.9984119,6 C47.7453679,6 49,4.75621891 49,2.98839138 C49,1.22056385 47.7485442,0 46.0015881,0 Z" id="Shape"></path>
            <path d="M62.8148573,8.06049533 C60.8063298,7.99774208 58.8825868,8.87069005 57.6083962,10.4230613 L57.6083962,2 L52,2 L52,24.8101232 L57.6083962,24.8101232 L57.6083962,22.6000812 C58.8360118,24.1377724 60.6774352,25 62.9426041,25 C67.8250246,25 70.9968842,21.6538097 71,16.6111788 C70.9813053,11.4782785 67.7190882,8.06360807 62.8148573,8.06049533 Z M62.1917022,20.7262146 C60.0106592,20.7262146 58.2720564,18.8865882 58.2720564,16.6236297 C58.2720564,14.3606713 60.0293539,12.5241575 62.1979337,12.5241575 C64.3665136,12.5241575 66.1206953,14.3700095 66.1206953,16.6236297 C66.1206953,18.87725 64.3727452,20.7262146 62.1917022,20.7262146 Z" id="Shape"></path>
            <path d="M22.2534478,5.92567864 L16.4522129,7.07092646 C16.4522129,7.07092646 18.5143085,5.14865764 19.8985856,3.99716869 C20.2486326,3.70695602 20.5541283,3.46355186 20.7737033,3.31376467 C20.3640882,3.48499647 19.9455756,3.63499069 19.5198983,3.76312622 C16.8818162,4.60567911 11.5961052,5.97872827 11.5897407,5.98184883 L11.5897407,5.98184883 L15.548455,2.3120629 C14.5425654,2.10623414 13.5178706,2.00167288 12.4903164,2.00000628 C5.35572037,1.99376514 0,6.64340888 0,12.9313499 C0,19.2192909 5.34299139,23.9968779 12.4775874,23.9999985 C19.6121834,24.003119 24.996544,19.2411349 24.9997262,12.9438322 C25.018825,10.3486782 24.037991,7.84214289 22.2534478,5.92567864 Z M12.5444146,19.4096455 C10.8066489,19.404687 9.14206707,18.7229833 7.91686191,17.514503 C6.69165675,16.3060228 6.0061918,14.6697595 6.01126309,12.9656761 C6.00522006,11.2659776 6.69393493,9.63477376 7.92344734,8.43671588 C9.15295974,7.238658 10.8207404,6.57365238 12.5539613,6.59035926 C14.2736497,6.57981326 15.9244985,7.25214712 17.1305944,8.45426435 C18.3366903,9.65638157 18.9953681,11.2859555 18.9566407,12.9719173 C18.9534584,16.607377 16.1117126,19.4127661 12.5444146,19.4096455 Z" id="Shape"></path>
        </g>
    </g>
</svg>